<?xml version="1.0" encoding="UTF-8"?><svg version="1.1" width="22px" height="22px" viewBox="0 0 22.0 22.0" xmlns="http://www.w3.org/2000/svg" xmlns:xlink="http://www.w3.org/1999/xlink"><defs><clipPath id="i0"><path d="M1600,0 L1600,2814 L0,2814 L0,0 L1600,0 Z"></path></clipPath><clipPath id="i1"><path d="M13.5,0 C14.3284271,0 15,0.671572875 15,1.5 L15,7.5 L19.5,7.5 C20.3284271,7.5 21,8.17157288 21,9 L21,21 L0,21 L0,1.5 C0,0.671572875 0.671572875,0 1.5,0 Z M13.5,1.5 L1.5,1.5 L1.5,19.5 L13.5,19.5 L13.5,1.5 Z M19.5,9 L15,9 L15,19.5 L19.5,19.5 L19.5,9 Z M6,13.5 L6,16.5 L4.5,16.5 L4.5,13.5 L6,13.5 Z M10.5,13.5 L10.5,16.5 L9,16.5 L9,13.5 L10.5,13.5 Z M6,9 L6,12 L4.5,12 L4.5,9 L6,9 Z M10.5,9 L10.5,12 L9,12 L9,9 L10.5,9 Z M6,4.5 L6,7.5 L4.5,7.5 L4.5,4.5 L6,4.5 Z M10.5,4.5 L10.5,7.5 L9,7.5 L9,4.5 L10.5,4.5 Z"></path></clipPath></defs><g transform="translate(-587.0 -631.0)"><g clip-path="url(#i0)"><g transform="translate(376.0 384.0)"><g transform="translate(55.0 244.0)"><g transform="translate(155.0 0.0)"><g transform="translate(0.0 2.0)"><g transform="translate(1.5 1.5)"><g clip-path="url(#i1)"><polygon points="0,0 21,0 21,21 0,21 0,0" stroke="none" fill="#FFDA00"></polygon></g></g></g></g></g></g></g></g></svg>