<?xml version="1.0" encoding="UTF-8"?>
<svg width="18px" height="18px" viewBox="0 0 18 18" version="1.1" xmlns="http://www.w3.org/2000/svg" xmlns:xlink="http://www.w3.org/1999/xlink">
    <title>Actions / Toggle / checkbox--checked--filled / 20@2x</title>
    <g id="User" stroke="none" stroke-width="1" fill="none" fill-rule="evenodd">
        <g id="Profile-01" transform="translate(-593.000000, -339.000000)" fill="#FFDA00">
            <g id="Actions-/-Toggle-/-checkbox--checked--filled-/-20" transform="translate(593.000000, 339.000000)">
                <path d="M14.1541722,1.55376046e-16 C15.4914503,-9.02779573e-17 15.9763797,0.139238417 16.4652686,0.400699056 C16.9541574,0.662159695 17.3378403,1.04584256 17.5993009,1.53473144 C17.8607616,2.02362033 18,2.50854969 18,3.8458278 L18,14.1541722 C18,15.4914503 17.8607616,15.9763797 17.5993009,16.4652686 C17.3378403,16.9541574 16.9541574,17.3378403 16.4652686,17.5993009 C15.9763797,17.8607616 15.4914503,18 14.1541722,18 L3.8458278,18 C2.50854969,18 2.02362033,17.8607616 1.53473144,17.5993009 C1.04584256,17.3378403 0.662159695,16.9541574 0.400699056,16.4652686 C0.139238417,15.9763797 -2.0326307e-16,15.4914503 3.49833039e-16,14.1541722 L1.03584031e-16,3.8458278 C-6.01853049e-17,2.50854969 0.139238417,2.02362033 0.400699056,1.53473144 C0.662159695,1.04584256 1.04584256,0.662159695 1.53473144,0.400699056 C2.02362033,0.139238417 2.50854969,-1.73170418e-16 3.8458278,2.98041023e-16 L14.1541722,1.55376046e-16 Z M14.3661099,5.06652902 C14.0289208,4.76604012 13.5119806,4.79579151 13.2114917,5.1329806 L7.84603058,11.1537521 L4.82780014,8.24710176 C4.4892742,7.92109069 3.95465559,7.91753773 3.61182654,8.23902066 C3.60235239,8.24790491 3.59309632,8.25701891 3.58406659,8.26635452 C3.27735236,8.58345884 3.28577519,9.08916368 3.6028795,9.39587791 L7.84603058,13.5 L14.4279823,6.29894599 C14.7460497,5.95096099 14.7282056,5.41271665 14.3877889,5.08656198 C14.3806836,5.07975445 14.3734561,5.0730757 14.3661099,5.06652902 Z" id="Combined-Shape"></path>
            </g>
        </g>
    </g>
</svg>