<?xml version="1.0" encoding="UTF-8"?><svg version="1.1" width="30px" height="40px" viewBox="0 0 30.0 40.0" xmlns="http://www.w3.org/2000/svg" xmlns:xlink="http://www.w3.org/1999/xlink"><defs><clipPath id="i0"><path d="M13.1721612,0 C20.4469449,0 26.3443223,5.87969414 26.3443223,13.1326644 C26.3443223,20.3856347 20.4469449,26.2653289 13.1721612,26.2653289 C5.89737743,26.2653289 0,20.3856347 0,13.1326644 C0,5.87969414 5.89737743,0 13.1721612,0 Z"></path></clipPath><clipPath id="i1"><path d="M1.73719953,0 C3.25883062,0 4.34276418,0.0689827673 4.95968272,0.20438632 C5.55684771,0.335957738 6.08742268,0.557376251 6.53607853,0.863101738 C7.11657367,1.2565415 7.56303963,1.7679278 7.86358854,2.38193208 C8.16811498,3.00445463 8.32234462,3.72789152 8.32234462,4.53263989 C8.32234462,5.33743162 8.16766807,6.0608555 7.86358854,6.68336071 C7.56303963,7.29736933 7.11657367,7.80833513 6.53607853,8.20221273 C6.09180243,8.50366824 5.57566275,8.72210862 5.00173723,8.85111805 C4.41069494,8.98441913 3.46605519,9.05169825 2.19504836,9.05169825 L0.29486418,9.05169825 C0.131879522,9.05169825 0,8.92351246 0,8.76511176 L0,0.286564811 C0,0.128168447 0.131879522,0 0.29486418,0 Z M2.8106217,1.49584187 L2.58498432,1.49584187 C2.2642707,1.49584187 2.00401992,1.74919195 2.00401992,2.06045323 L2.00401992,6.98485957 C2.00401992,7.29611218 2.26470867,7.54944926 2.58498432,7.54944926 L2.8106217,7.54944926 C3.96552502,7.54944926 4.83262539,7.30460877 5.3881381,6.82216723 C5.95509178,6.32953846 6.24294837,5.55838629 6.24294837,4.53263989 C6.24294837,3.50689783 5.95598561,2.73406802 5.38992575,2.23503212 C4.83392144,1.74450582 3.96597193,1.49584187 2.8106217,1.49584187 Z"></path></clipPath><clipPath id="i2"><path d="M0.84981685,0 C1.31915774,0 1.6996337,0.379335106 1.6996337,0.847268673 C1.6996337,1.31520224 1.31915774,1.69453735 0.84981685,1.69453735 C0.380475964,1.69453735 0,1.31520224 0,0.847268673 C0,0.379335106 0.380475964,0 0.84981685,0 Z"></path></clipPath><clipPath id="i3"><path d="M1.27472527,0 C1.9787366,0 2.54945055,0.569002659 2.54945055,1.27090301 C2.54945055,1.97280336 1.9787366,2.54180602 1.27472527,2.54180602 C0.570713945,2.54180602 0,1.97280336 0,1.27090301 C0,0.569002659 0.570713945,0 1.27472527,0 Z"></path></clipPath><clipPath id="i4"><path d="M1.27472527,0 C1.9787366,0 2.54945055,0.569002659 2.54945055,1.27090301 C2.54945055,1.97280336 1.9787366,2.54180602 1.27472527,2.54180602 C0.570713945,2.54180602 0,1.97280336 0,1.27090301 C0,0.569002659 0.570713945,0 1.27472527,0 Z"></path></clipPath><clipPath id="i5"><path d="M0.84981685,0 C1.31915774,0 1.6996337,0.379335106 1.6996337,0.847268673 C1.6996337,1.31520224 1.31915774,1.69453735 0.84981685,1.69453735 C0.380475964,1.69453735 0,1.31520224 0,0.847268673 C0,0.379335106 0.380475964,0 0.84981685,0 Z"></path></clipPath><clipPath id="i6"><path d="M1.27472527,0 C1.9787366,0 2.54945055,0.569002659 2.54945055,1.27090301 C2.54945055,1.97280336 1.9787366,2.54180602 1.27472527,2.54180602 C0.570713945,2.54180602 0,1.97280336 0,1.27090301 C0,0.569002659 0.570713945,0 1.27472527,0 Z"></path></clipPath><clipPath id="i7"><path d="M0.84981685,0 C1.31915774,0 1.6996337,0.379335106 1.6996337,0.847268673 C1.6996337,1.31520224 1.31915774,1.69453735 0.84981685,1.69453735 C0.380475964,1.69453735 0,1.31520224 0,0.847268673 C0,0.379335106 0.380475964,0 0.84981685,0 Z"></path></clipPath><clipPath id="i8"><path d="M1.27472527,0 C1.9787366,0 2.54945055,0.569002659 2.54945055,1.27090301 C2.54945055,1.97280336 1.9787366,2.54180602 1.27472527,2.54180602 C0.570713945,2.54180602 0,1.97280336 0,1.27090301 C0,0.569002659 0.570713945,0 1.27472527,0 Z"></path></clipPath><clipPath id="i9"><path d="M1.27472527,0 C1.9787366,0 2.54945055,0.569002659 2.54945055,1.27090301 C2.54945055,1.97280336 1.9787366,2.54180602 1.27472527,2.54180602 C0.570713945,2.54180602 0,1.97280336 0,1.27090301 C0,0.569002659 0.570713945,0 1.27472527,0 Z"></path></clipPath></defs><g transform="translate(-15.0 -17.0)"><g transform="translate(13.0 0.0)"><g transform="translate(2.0000000000000284 17.0)"><g transform="translate(0.8498168498168432 7.625418060200676)"><g clip-path="url(#i0)"><path d="M13.1721612,26.2653289 C20.4469449,26.2653289 26.3443223,20.3856347 26.3443223,13.1326644 C26.3443223,5.87969414 20.4469449,0 13.1721612,0 C5.89737743,0 0,5.87969414 0,13.1326644 C0,20.3856347 5.89737743,26.2653289 13.1721612,26.2653289 Z" stroke="#FFDA00" stroke-width="8.28571429" fill="none" stroke-miterlimit="5" stroke-dasharray=" 82.85713958740234 45.57143020629883"></path></g></g><g transform="translate(0.8498168498168432 7.625418060200676)"><g clip-path="url(#i0)"><path d="M13.1721612,26.2653289 C20.4469449,26.2653289 26.3443223,20.3856347 26.3443223,13.1326644 C26.3443223,5.87969414 20.4469449,0 13.1721612,0 C5.89737743,0 0,5.87969414 0,13.1326644 C0,20.3856347 5.89737743,26.2653289 13.1721612,26.2653289 Z" stroke="#31CDC9" stroke-width="8.28571429" fill="none" stroke-miterlimit="5" stroke-dasharray=" 58.82857131958008 45.57143020629883"></path></g></g><g transform="translate(0.8498168498168432 7.625418060200676)"><g clip-path="url(#i0)"><path d="M13.1721612,26.2653289 C20.4469449,26.2653289 26.3443223,20.3856347 26.3443223,13.1326644 C26.3443223,5.87969414 20.4469449,0 13.1721612,0 C5.89737743,0 0,5.87969414 0,13.1326644 C0,20.3856347 5.89737743,26.2653289 13.1721612,26.2653289 Z" stroke="#CC7A3A" stroke-width="8.28571429" fill="none" stroke-miterlimit="5" stroke-dasharray=" 47.228572845458984 45.57143020629883"></path></g></g><g transform="translate(10.19780219780224 16.27647714604238)"><g clip-path="url(#i1)"><polygon points="0,0 8.32234462,0 8.32234462,9.05169825 0,9.05169825 0,0" stroke="none" fill="#FFDA00"></polygon></g></g><g transform="translate(21.67032967032969 5.083612040133786)"><g clip-path="url(#i2)"><polygon points="0,0 1.6996337,0 1.6996337,1.69453735 0,1.69453735 0,0" stroke="none" fill="#FFDA00"></polygon></g></g><g transform="translate(16.14652014652015 2.5418060200668924)"><g clip-path="url(#i3)"><polygon points="0,0 2.54945055,0 2.54945055,2.54180602 0,2.54180602 0,0" stroke="none" fill="#FFDA00"></polygon></g></g><g transform="translate(22.09523809523812 0.0)"><g clip-path="url(#i4)"><polygon points="0,0 2.54945055,0 2.54945055,2.54180602 0,2.54180602 0,0" stroke="none" fill="#FFDA00"></polygon></g></g><g transform="translate(25.49450549450555 8.04905239687847)"><g clip-path="url(#i2)"><polygon points="0,0 1.6996337,0 1.6996337,1.69453735 0,1.69453735 0,0" stroke="none" fill="#FFDA00"></polygon></g></g><g transform="translate(26.76923076923076 32.37458193979932)"><g clip-path="url(#i5)"><polygon points="0,0 1.6996337,0 1.6996337,1.69453735 0,1.69453735 0,0" stroke="none" fill="#FFDA00"></polygon></g></g><g transform="translate(27.19413919413923 37.45819397993311)"><g clip-path="url(#i6)"><polygon points="0,0 2.54945055,0 2.54945055,2.54180602 0,2.54180602 0,0" stroke="none" fill="#FFDA00"></polygon></g></g><g transform="translate(21.67032967032969 34.91638795986624)"><g clip-path="url(#i7)"><polygon points="0,0 1.6996337,0 1.6996337,1.69453735 0,1.69453735 0,0" stroke="none" fill="#FFDA00"></polygon></g></g><g transform="translate(5.523809523809542 35.5852842809365)"><g clip-path="url(#i5)"><polygon points="0,0 1.6996337,0 1.6996337,1.69453735 0,1.69453735 0,0" stroke="none" fill="#FFDA00"></polygon></g></g><g transform="translate(0.0 31.34894091415829)"><g clip-path="url(#i8)"><polygon points="0,0 2.54945055,0 2.54945055,2.54180602 0,2.54180602 0,0" stroke="none" fill="#FFDA00"></polygon></g></g><g transform="translate(0.0 7.625418060200678)"><g clip-path="url(#i9)"><polygon points="0,0 2.54945055,0 2.54945055,2.54180602 0,2.54180602 0,0" stroke="none" fill="#FFDA00"></polygon></g></g></g></g></g></svg>