<?xml version="1.0" encoding="UTF-8"?>
<svg width="14px" height="16px" viewBox="0 0 14 16" version="1.1" xmlns="http://www.w3.org/2000/svg" xmlns:xlink="http://www.w3.org/1999/xlink">
    <title>Actions / Navigation / chevron--left / 24</title>
    <g id="Deposit-and-Withdraw" stroke="none" stroke-width="1" fill="none" fill-rule="evenodd">
        <g id="Deposit-02" transform="translate(-1545.000000, -474.000000)" fill="#FFFFFF">
            <g id="Group-5" transform="translate(1210.000000, -1.000000)">
                <g id="Group-10" transform="translate(16.000000, 195.000000)">
                    <g id="Group-9" transform="translate(16.000000, 260.000000)">
                        <g id="Group-8" transform="translate(294.000000, 12.000000)">
                            <g id="Actions-/-Navigation-/-chevron--left-/-24" transform="translate(9.250000, 8.250000)">
                                <path d="M12.25,14.25 L4,14.25 L4,4 L12.25,4 L12.25,14.25 Z M12.25,2.75 L4,2.75 C3.30964406,2.75 2.75,3.30964406 2.75,4 L2.75,14.25 C2.75,14.9403559 3.30964406,15.5 4,15.5 L12.25,15.5 C12.9403559,15.5 13.5,14.9403559 13.5,14.25 L13.5,4 C13.5,3.30964406 12.9403559,2.75 12.25,2.75 Z M1.25,12 L0,12 L0,1.25 C0,0.559644063 0.559644063,0 1.25,0 L9,0 L9,1.25 L1.25,1.25 L1.25,12 Z" id="Fill"></path>
                            </g>
                        </g>
                    </g>
                </g>
            </g>
        </g>
    </g>
</svg>