<?xml version="1.0" encoding="UTF-8"?><svg version="1.1" width="19px" height="20px" viewBox="0 0 19.0 20.0" xmlns="http://www.w3.org/2000/svg" xmlns:xlink="http://www.w3.org/1999/xlink"><defs><clipPath id="i0"><path d="M1600,0 L1600,1080 L0,1080 L0,0 L1600,0 Z"></path></clipPath><clipPath id="i1"><path d="M9.69517007,0 C12.2094404,0 14.499204,0.957010834 16.2227682,2.52711723 L13.9275399,4.82076804 C12.7927664,3.83299014 11.3146202,3.23067177 9.69201532,3.23067177 C6.12373834,3.23067177 3.23067177,6.12373834 3.23067177,9.69201532 C3.23067177,13.2602923 6.12373834,16.1533589 9.69201532,16.1533589 C12.7013497,16.1533589 15.2234924,14.092393 15.9419768,11.3073512 L9.69201532,11.3073512 L9.69201532,8.07667943 L18.8429561,8.07667943 C19.6013563,11.8783724 17.7799262,19.3840306 9.69517007,19.3840306 C4.34113944,19.3840306 0,15.0444308 0,9.69201532 C0,4.33959986 4.34113944,0 9.69517007,0 Z"></path></clipPath></defs><g transform="translate(-235.0 -224.0)"><g clip-path="url(#i0)"><g transform="translate(195.0 211.0)"><g transform="translate(40.0 13.000000000000002)"><g clip-path="url(#i1)"><polygon points="0,0 19,0 19,19.3840306 0,19.3840306 0,0" stroke="none" fill="#FFFFFF"></polygon></g></g></g></g></g></svg>