<?xml version="1.0" encoding="UTF-8"?>
<svg width="14px" height="14px" viewBox="0 0 14 14" version="1.1" xmlns="http://www.w3.org/2000/svg" xmlns:xlink="http://www.w3.org/1999/xlink">
    <title>Actions / Toggle / checkbox--checked--filled / 20 Copy@2x</title>
    <g id="User" stroke="none" stroke-width="1" fill="none" fill-rule="evenodd">
        <g id="Profile-01" transform="translate(-744.000000, -341.000000)" fill="#8698A2">
            <g id="Actions-/-Toggle-/-checkbox--checked--filled-/-20-Copy" transform="translate(744.000000, 341.000000)">
                <path d="M7.5,10 L7.5,6 L5.5,6 L5.5,7 L6.5,7 L6.5,10 L5,10 L5,11 L9,11 L9,10 L7.5,10 L7.5,10 Z M7,3 C6.58578644,3 6.25,3.33578644 6.25,3.75 C6.25,4.16421356 6.58578644,4.5 7,4.5 C7.41421356,4.5 7.75,4.16421356 7.75,3.75 C7.75,3.33578644 7.41421356,3 7,3 Z M7,14 C3.13400675,14 0,10.8659932 0,7 C0,3.13400675 3.13400675,0 7,0 C10.8659932,0 14,3.13400675 14,7 C14,8.85651543 13.2625021,10.6369928 11.9497475,11.9497475 C10.6369928,13.2625021 8.85651543,14 7,14 Z M7,1 C3.6862915,1 1,3.6862915 1,7 C1,10.3137085 3.6862915,13 7,13 C10.3137085,13 13,10.3137085 13,7 C13,3.6862915 10.3137085,1 7,1 Z" id="Fill"></path>
            </g>
        </g>
    </g>
</svg>