<?xml version="1.0" encoding="UTF-8"?>
<svg width="18px" height="20px" viewBox="0 0 18 20" version="1.1" xmlns="http://www.w3.org/2000/svg" xmlns:xlink="http://www.w3.org/1999/xlink">
    <title>Actions / Toggle / checkbox--checked--filled / 24 Copy 2</title>
    <g id="User-/-Transaction" stroke="none" stroke-width="1" fill="none" fill-rule="evenodd">
        <g id="Transactions-04" transform="translate(-1340.000000, -362.000000)" fill="#8698A2">
            <g id="Dropdown-Copy" transform="translate(1141.000000, 204.000000)">
                <g id="Group-7-Copy" transform="translate(32.000000, 118.000000)">
                    <g id="Actions-/-Toggle-/-checkbox--checked--filled-/-24-Copy-2" transform="translate(167.000000, 40.500000)">
                        <path d="M16.5,1.5 L13.5,1.5 L13.5,0 L12,0 L12,1.5 L6,1.5 L6,0 L4.5,0 L4.5,1.5 L1.5,1.5 C0.675,1.5 0,2.175 0,3 L0,18 C0,18.825 0.675,19.5 1.5,19.5 L16.5,19.5 C17.325,19.5 18,18.825 18,18 L18,3 C18,2.175 17.325,1.5 16.5,1.5 Z M16.5,18 L1.5,18 L1.5,7.5 L16.5,7.5 L16.5,18 Z M16.5,6 L1.5,6 L1.5,3 L4.5,3 L4.5,4.5 L6,4.5 L6,3 L12,3 L12,4.5 L13.5,4.5 L13.5,3 L16.5,3 L16.5,6 Z" id="Fill"></path>
                    </g>
                </g>
            </g>
        </g>
    </g>
</svg>