<?xml version="1.0" encoding="UTF-8"?><svg version="1.1" width="20px" height="20px" viewBox="0 0 20.0 20.0" xmlns="http://www.w3.org/2000/svg" xmlns:xlink="http://www.w3.org/1999/xlink"><defs><clipPath id="i0"><path d="M17.8286875,13.2 L18.4213125,14.3004375 L10.2963125,18.6754375 C10.2052633,18.7245053 10.1034292,18.7501303 10,18.7500005 C9.89653333,18.7500005 9.79469706,18.72422 9.7036875,18.675 L1.5786875,14.3 L2.1713125,13.2 L10,17.4151875 L17.8286875,13.2 Z M17.8286875,9.45 L18.4213125,10.5504375 L10.2963125,14.9254375 C10.2052633,14.9745053 10.1034292,15.0001303 10,15.0000005 C9.89653333,15.0000005 9.79469706,14.97422 9.7036875,14.925 L1.5786875,10.55 L2.1713125,9.45 L10,13.6651875 L17.8286875,9.45 Z M10.2963125,1.3245625 L18.4213125,5.6995625 C18.6236779,5.80859517 18.7498596,6.01991197 18.7498596,6.24978125 C18.7498596,6.47965053 18.6236779,6.69096733 18.4213125,6.8 L10.2963125,11.175 C10.2053029,11.22422 10.1034667,11.25 10,11.25 C9.89653333,11.25 9.79469706,11.22422 9.7036875,11.175 L1.5786875,6.8 C1.37632208,6.69096733 1.25014041,6.47965053 1.25014041,6.24978125 C1.25014041,6.01991197 1.37632208,5.80859517 1.5786875,5.6995625 L9.7036875,1.3245625 C9.88862126,1.22475092 10.1113787,1.22475092 10.2963125,1.3245625 Z M10,2.584875 L3.193375,6.25 L10,9.9151875 L16.806625,6.25 L10,2.584875 Z"></path></clipPath></defs><g clip-path="url(#i0)"><polygon points="1.25014041,1.24970382 18.7498596,1.24970382 18.7498596,18.750001 1.25014041,18.750001 1.25014041,1.24970382" stroke="none" fill="#8698A2"></polygon></g></svg>