<?xml version="1.0" encoding="UTF-8"?><svg version="1.1" width="16px" height="18px" viewBox="0 0 16.0 18.0" xmlns="http://www.w3.org/2000/svg" xmlns:xlink="http://www.w3.org/1999/xlink"><defs><clipPath id="i0"><path d="M1600,0 L1600,1080 L0,1080 L0,0 L1600,0 Z"></path></clipPath><clipPath id="i1"><path d="M8.75,0 C9.44002755,0.000792165975 9.99920783,0.559972455 10,1.25 L10,3.125 L8.75,3.125 L8.75,1.25 L1.25,1.25 L1.25,16.25 L8.75,16.25 L8.75,14.375 L10,14.375 L10,16.25 C9.99920783,16.9400275 9.44002755,17.4992078 8.75,17.5 L1.25,17.5 C0.559972455,17.4992078 0.000792165975,16.9400275 0,16.25 L0,1.25 C0.000792165975,0.559972455 0.559972455,0.000792165975 1.25,0 Z M11.25,5 L15,8.75 L11.25,12.5 L10.36625,11.61625 L12.6075,9.375 L3.75,9.375 L3.75,8.125 L12.6075,8.125 L10.36625,5.88375 L11.25,5 Z"></path></clipPath></defs><g transform="translate(-1280.0 -373.0)"><g clip-path="url(#i0)"><g transform="translate(1254.0 88.0)"><g transform="translate(0.0 32.0)"><g transform="translate(24.0 252.0)"><g transform="translate(2.5 1.25)"><g clip-path="url(#i1)"><polygon points="0,0 15,0 15,17.5 0,17.5 0,0" stroke="none" fill="#FE025B"></polygon></g></g></g></g></g></g></g></svg>