<svg version="1.1" width="112px" height="56px" viewBox="0 0 112.0 56.0" xmlns="http://www.w3.org/2000/svg" xmlns:xlink="http://www.w3.org/1999/xlink"><defs><clipPath id="i0"><path d="M4.80599508,0.00085502676 C8.38251373,0.014532066 10.9453942,0.192211576 12.4296318,0.528037535 C13.9262075,0.867955818 15.2558997,1.43999648 16.3802916,2.22984647 C17.8350905,3.24630864 18.9539942,4.56748884 19.7072102,6.15378536 C20.4703944,7.76208904 20.8569146,9.63110762 20.8569146,11.7101966 C20.8569146,13.7893976 20.4692744,15.6583826 19.7072102,17.2666415 C18.9539942,18.8529492 17.8350905,20.173043 16.3802916,21.1906364 C15.266876,21.9694548 13.9733605,22.5338013 12.535026,22.8671007 C11.0537946,23.2114876 8.68640033,23.385305 5.50108634,23.385305 L0.738969281,23.385305 C0.330507814,23.385305 0,23.0541335 0,22.6449011 L0,0.740347867 C0,0.331126617 0.330507814,0 0.738969281,0 Z M7.04379587,3.86454755 L6.47831827,3.86454755 C5.67456682,3.86454755 5.02234338,4.51908427 5.02234338,5.32323612 L5.02234338,18.0455719 C5.02234338,18.8497013 5.67566444,19.5042044 6.47831827,19.5042044 L7.04379587,19.5042044 C9.93813889,19.5042044 12.111209,18.8716525 13.5033986,17.6252518 C14.9242607,16.3525322 15.645668,14.3602399 15.645668,11.7101966 C15.645668,9.06016451 14.9265008,7.06353799 13.5078786,5.77426538 C12.1144571,4.50697753 9.93925892,3.86454755 7.04379587,3.86454755 Z"></path></clipPath><clipPath id="i1"><path d="M4.51403179,0 C4.82147832,0 5.0706836,0.249716911 5.0706836,0.557738806 L5.0706836,11.3482488 C5.0706836,13.1931547 5.11682858,14.4923053 5.21337463,15.3217458 C5.31440078,16.183105 5.4901325,16.9233969 5.73608972,17.5185423 C6.07870499,18.3535826 6.67601367,18.9971101 7.51379145,19.4316536 C8.28671985,19.8320384 9.2222757,20.0355346 10.2972745,20.0355346 C11.3721613,20.0355346 12.3065972,19.8309184 13.0752695,19.4294137 C13.902071,18.9971101 14.4993797,18.3579504 14.8573393,17.5196623 C15.1044165,16.9223889 15.2800363,16.183105 15.3810624,15.3217458 C15.4777204,14.4977931 15.5238654,13.1975225 15.5238654,11.3482488 L15.5238654,0.557738806 C15.5238654,0.249716911 15.7730707,0 16.0805172,0 L20.0234489,0 C20.3308954,0 20.5802127,0.249716911 20.5802127,0.557738806 L20.5802127,12.4132163 C20.5802127,15.0852108 20.4220654,17.0664155 20.1102508,18.3018405 C19.8137805,19.4755559 19.3097698,20.4854216 18.6093069,21.3093742 C17.860459,22.2005244 16.8030446,22.8814585 15.4667442,23.3368332 C14.0678345,23.8131511 12.3406459,24.0540539 10.2983945,24.0540539 C8.2560312,24.0540539 6.51562627,23.8131511 5.1223167,23.3368332 C3.78926441,22.8814585 2.72748188,22.1982845 1.97101783,21.3104942 C1.28253922,20.4887814 0.780656566,19.4755559 0.477690137,18.2984807 C0.161395425,17.0664155 0,15.0852108 0,12.4132163 L0,0.557738806 C0,0.249716911 0.249317291,0 0.556763815,0 Z"></path></clipPath><clipPath id="i2"><path d="M11.875052,0 C12.8962897,0 13.9229035,0.124315276 14.9231967,0.369630754 C15.6182834,0.540133075 16.3253544,0.773353013 17.0325374,1.06376918 C17.3135514,1.17928159 17.4958913,1.45429834 17.4958913,1.7579076 L17.4958913,5.24842296 C17.4958913,5.60815329 17.0940267,5.81936606 16.7964364,5.61695616 C16.5219186,5.42993446 16.2462808,5.26383357 15.9717629,5.12081501 C14.9199486,4.57078151 13.7779724,4.29247209 12.5778669,4.29247209 C10.3642519,4.29247209 8.54040523,5.06802022 7.1579599,6.59710931 C5.79757903,8.10090977 5.10686037,10.068899 5.10686037,12.4461206 C5.10686037,14.6804357 5.81180333,16.569244 7.20197683,18.0576674 C8.60738265,19.5625542 10.415885,20.3259172 12.5778669,20.3259172 C13.7779724,20.3259172 14.9199486,20.0476078 15.9717629,19.4975967 L17.013833,18.9519534 C17.2334697,18.8376058 17.4958913,18.9970877 17.4958913,19.2445983 L17.4958913,22.6823077 C17.4958913,23.1013957 17.2400778,23.4754615 16.8513176,23.6294557 C16.2057359,23.8858139 15.5600422,24.093678 14.9231967,24.2499121 C13.9229035,24.4951828 12.8974097,24.6194981 11.875052,24.6194981 C10.5903847,24.6194981 9.39251932,24.4666239 8.31528046,24.1630034 C7.25349792,23.8637508 6.26418093,23.4040082 5.37040196,22.7934075 C3.63010903,21.6240599 2.28608051,20.1333965 1.37695722,18.3645357 C0.463353833,16.5868273 0,14.5495127 0,12.3098218 C0,10.5068023 0.293222222,8.85114686 0.872946525,7.3869593 C1.44942276,5.93046584 2.33446554,4.58619212 3.5060104,3.39151112 C4.6039697,2.25954774 5.85570826,1.4025899 7.22605734,0.844851096 C8.60525461,0.284917173 10.1688078,0 11.875052,0 Z"></path></clipPath><clipPath id="i3"><path d="M4.46564676,0 C4.77309329,0 5.02229858,0.249716911 5.02229858,0.557738806 L5.02229858,8.64323796 C5.02229858,9.26255202 5.39235443,9.8367542 5.97319876,10.0502181 C6.60567618,10.2823853 7.29415479,10.0611937 7.67294683,9.51555041 L14.0699626,0.310217012 C14.2050374,0.115501211 14.4269141,0 14.6640232,0 L18.7211973,0 C19.2636248,0 19.5710713,0.621542781 19.2439124,1.05386875 L12.1012968,10.4968571 C11.7049204,11.0237971 11.7114165,11.7553533 12.1177611,12.2756855 L20.2003007,22.605277 C20.4483859,22.922113 20.2232612,23.3840954 19.8225166,23.3840954 L14.8825398,23.3840954 C14.6519269,23.3840954 14.4345303,23.2729956 14.2994554,23.0860747 L7.65648248,13.9191111 C7.21396109,13.3075023 6.36744712,13.1238293 5.69319281,13.5462772 C5.26724777,13.8124911 5.0234186,14.2954168 5.0234186,14.7991736 L5.0234186,22.2587622 C5.0234186,22.8803385 4.52052793,23.3840954 3.90014676,23.3840954 L1.12327184,23.3840954 C0.502890672,23.3840954 0,22.8803385 0,22.2587622 L0,0.557738806 C0,0.249716911 0.249205288,0 0.556651813,0 Z"></path></clipPath><clipPath id="i4"><path d="M8.59712362,0 C9.88839902,0 11.1280413,0.176001312 12.2798738,0.521429786 C13.092451,0.765647705 13.8840838,1.10226211 14.6406599,1.52689398 C14.8173996,1.62699577 14.8931132,1.84591386 14.8107915,2.03402191 L13.7248164,4.53117982 C13.6370066,4.73468728 13.3889213,4.80948924 13.2010933,4.69178171 C12.7574519,4.41237473 12.3061943,4.17805723 11.8516887,3.98993798 C10.9325972,3.60932045 10.0047695,3.41681096 9.09340615,3.41681096 C8.07776859,3.41681096 7.22453449,3.67752585 6.55700032,4.19015277 C5.82898487,4.74898914 5.4435847,5.51794072 5.4435847,6.40349107 C5.4435847,7.28905262 5.78619997,8.04369114 6.43402171,8.58603053 C6.99616164,9.0579582 7.93395754,9.45727902 9.37341209,9.84005808 L9.68746675,9.92696678 C12.9530081,10.8115092 14.2651159,11.6420696 14.787719,12.1788652 C15.2928497,12.7046852 15.683738,13.3470928 15.9483996,14.0896246 C16.2217974,14.8564595 16.3601204,15.7254344 16.3601204,16.6715745 C16.3601204,19.106026 15.5948081,20.999202 14.0191587,22.4589546 C12.4456373,23.9165792 10.2935116,24.6558631 7.6210229,24.6558631 C5.99586842,24.6558631 4.50254073,24.3775537 3.18281672,23.8296705 C2.17154726,23.4094624 1.1745021,22.7978537 0.210385643,22.0046998 C-0.0113790629,21.8220348 -0.0651402037,21.5030709 0.0841589645,21.2565683 L1.57636663,18.78919 C1.76307459,18.4800818 2.18465154,18.4194921 2.4515532,18.6626348 C3.09052676,19.2445647 3.73073235,19.7220026 4.36421779,20.0894606 C5.48312153,20.736236 6.63932207,21.0651675 7.75822581,21.0651675 C8.87712956,21.0651675 9.82466966,20.7483316 10.5713895,20.1235073 C11.3542861,19.4690042 11.7671269,18.5900616 11.7671269,17.5813159 C11.7671269,16.4889094 11.4112953,15.6188145 10.7108325,14.9949982 C10.0849632,14.4383793 8.87488951,13.9335025 6.90510371,13.4054426 C4.61566313,12.7861061 2.99935683,11.9951922 2.09908172,11.052412 C1.23599141,10.1481584 0.816542506,8.91384207 0.816542506,7.27914099 C0.816542506,5.10761071 1.5137573,3.39260868 2.94996378,2.03621702 C4.40050656,0.66553471 6.24731375,0 8.59712362,0 Z"></path></clipPath><clipPath id="i5"><path d="M4.39777897,0 C4.7667148,0 5.09612499,0.232167178 5.22020123,0.579801968 L9.81316109,13.4418412 C9.85717803,13.5847478 9.94711593,13.9280147 10.0844308,14.472538 C10.2261139,15.0357646 10.4115898,15.7969997 10.6389546,16.7529954 C10.8519831,17.6484014 12.1245541,17.6495213 12.3375827,16.7529954 C12.5198105,15.9917603 12.6900541,15.3042184 12.8480895,14.6914897 C13.0018688,14.0952244 13.1171192,13.6816241 13.1852166,13.4781278 L17.7596177,0.580921925 C17.8825963,0.234407093 18.2119953,0.00111995744 18.5820512,0.00111995744 L21.9880435,0.00111995744 C22.6116727,0.00111995744 23.0344817,0.638039754 22.7928925,1.21448185 L13.7363803,22.8484758 C13.6014175,23.1740474 13.2829947,23.3852714 12.9316433,23.3852714 L10.046014,23.3852714 C9.69466258,23.3852714 9.37724784,23.1730394 9.24114255,22.8484758 L0.0507203265,0.896637928 C-0.127161848,0.470830108 0.184675169,0 0.645844955,0 Z"></path></clipPath><clipPath id="i6"><path d="M13.0357326,0 C13.3607635,0 13.6243051,0.263973969 13.6243051,0.589657593 L13.6243051,3.17149548 C13.6243051,3.49706711 13.3607635,3.76115308 13.0357326,3.76115308 L6.37517529,3.76115308 C5.57032621,3.75891316 4.91802436,4.41229633 4.91802436,5.21754573 L4.91802436,8.41222434 C4.91802436,9.21747374 5.57032621,9.87085691 6.37405526,9.87085691 L12.4066153,9.87085691 C12.8039997,9.87085691 13.1269026,10.1943006 13.1269026,10.5925575 L13.1269026,12.790474 C13.1269026,13.1887308 12.8039997,13.5120625 12.4066153,13.5120625 L6.37405526,13.5120625 C5.57032621,13.5120625 4.91802436,14.1655577 4.91802436,14.9708071 L4.91802436,18.0444183 C4.91802436,18.8496677 5.57032621,19.5030509 6.37405526,19.5030509 L12.8523847,19.5030509 C13.2784418,19.5030509 13.6231851,19.8484458 13.6231851,20.2753735 L13.6231851,22.6108208 C13.6231851,23.0376366 13.2784418,23.3830314 12.8523847,23.3830314 L0.646813726,23.3830314 C0.289974153,23.3830314 0,23.0926265 0,22.7350241 L0,0.64789538 C0,0.290404965 0.289974153,0 0.646813726,0 Z"></path></clipPath><clipPath id="i7"><path d="M12.5449382,0 C14.8496111,0 16.9095588,0.458734568 18.6663161,1.36298821 C19.978536,2.03731458 21.1489608,2.97348701 22.1558622,4.15168224 C22.3435781,4.37164188 22.2678645,4.71154896 22.007571,4.83698419 L18.5323613,6.50684074 C18.3149647,6.61144477 18.0569112,6.55858277 17.8933877,6.3815175 C17.292719,5.73026225 16.633921,5.21205794 15.928978,4.83373632 C14.9199486,4.29246089 13.7802124,4.01739934 12.5438182,4.01739934 C10.2434014,4.01739934 8.39435413,4.80943324 7.05043762,6.37266984 C5.73821777,7.8973799 5.07292365,9.95227781 5.07292365,12.5495711 C5.07292365,15.1468644 5.73720975,17.238049 7.04819757,18.7682468 C8.39323411,20.3380912 10.2412733,21.1333729 12.5438182,21.1333729 C14.4620829,21.1333729 16.0969816,20.6460794 17.4047213,19.684596 C18.5126489,18.8706109 19.2537686,17.8133711 19.6084801,16.5438993 C19.7545312,16.0180793 19.5996319,15.4614605 19.180183,15.0741792 C18.9067852,14.8223008 18.5400894,14.6968655 18.1689136,14.6968655 L13.5550876,14.6968655 C13.242153,14.6968655 12.9884676,14.4427472 12.9884676,14.1292711 L12.9884676,11.7432018 C12.9884676,11.4297257 13.242153,11.1756073 13.5550876,11.1756073 L24.3013797,11.1756073 C24.5276245,11.1756073 24.7109724,11.3592803 24.7109724,11.5858477 L24.7109724,11.7773605 C24.7109724,15.8497497 23.6425817,19.0344607 21.534361,21.2412248 C19.4371165,23.4369014 16.4121563,24.5502511 12.5438182,24.5502511 C10.6277935,24.5502511 8.90822104,24.261974 7.43471777,23.6910197 C5.9754388,23.1266732 4.65235473,22.2499705 3.49940226,21.0849908 C2.39920291,19.9717531 1.5317445,18.6340759 0.922339573,17.1093658 C0.310806596,15.578048 0,14.0291469 0,12.2756295 C0,10.5221122 0.301958408,8.89179011 0.896019014,7.42979767 C1.48783957,5.97228505 2.38598663,4.64009568 3.5576435,3.47735586 C4.72370024,2.34093504 6.07971302,1.46972015 7.58950505,0.885550349 C9.1091533,0.298132671 10.7759727,0 12.5449382,0 Z"></path></clipPath><clipPath id="i8"><path d="M9.19100682,0 C10.3339911,0 11.1762489,1.07146328 10.9093473,2.18470098 L10.7161432,2.98995038 C10.567852,3.60379906 10.424041,4.19009678 10.282358,4.74671562 C10.141907,5.29784668 9.99910397,5.82702657 9.85641294,6.32204776 L7.56697235,13.8596973 C7.43301751,14.2997286 7.51545126,14.7826543 7.78884906,15.1523522 C8.06224686,15.5219382 8.50028816,15.7430178 8.9592739,15.7430178 L14.1881049,15.7430178 C14.6480986,15.7430178 15.0862519,15.5219382 15.3596497,15.1512323 C15.6330475,14.7805263 15.7143612,14.2964807 15.5792864,13.8553295 L13.2557971,6.31219214 C13.1812035,6.07789704 13.0779373,5.68624792 12.9462225,5.14934033 L12.2193271,2.19455661 C11.9448093,1.07807103 12.7880751,0 13.9355395,0 C14.6887555,0 15.3596497,0.478445819 15.6056069,1.19241869 L23.0567891,22.790126 C23.1566952,23.0805309 22.9414266,23.3841514 22.6339801,23.3841514 L18.8206352,23.3841514 C18.5395092,23.3841514 18.293552,23.1971185 18.2167183,22.9265368 L17.306475,19.6989314 C17.1714002,19.2181337 16.7332469,18.8859543 16.2347243,18.8859543 L6.88073379,18.8859543 C6.38557128,18.8859543 5.94965803,19.2137659 5.8112231,19.6912037 L4.8735392,22.9309046 C4.79558554,23.1993584 4.54962832,23.3841514 4.27074241,23.3841514 L0.447429272,23.3841514 C0.139982748,23.3841514 -0.0751738181,23.0816509 0.0247323019,22.790126 L7.46045809,1.19353865 C7.70641531,0.479565777 8.37730955,0 9.13164556,0 Z"></path></clipPath><clipPath id="i9"><path d="M8.49186622,0 C9.78314162,0 11.0227839,0.17605731 12.1746164,0.521452185 C13.0014179,0.770082737 13.808507,1.11659757 14.5781874,1.55214902 C14.7318546,1.63905772 14.796704,1.82609061 14.7263665,1.98781246 L13.6097028,4.55430694 C13.526261,4.74570766 13.2924001,4.81716095 13.1156603,4.70494121 C12.6654108,4.42002404 12.2075451,4.18024115 11.7464313,3.98996038 C10.8273398,3.6104068 9.89951209,3.41788612 8.98814875,3.41788612 C7.97251119,3.41788612 7.11927709,3.67749226 6.45174292,4.19009678 C5.72372747,4.74895554 5.33832729,5.51791832 5.33832729,6.40346867 C5.33832729,7.28901902 5.68094257,8.04364634 6.32876431,8.58604173 C6.89090424,9.05687184 7.82758012,9.45613667 9.26815469,9.83905012 L9.58220935,9.92595881 C12.8476386,10.8103892 14.1598585,11.6409496 14.6824616,12.1777452 C15.1864723,12.7024453 15.5773606,13.3449649 15.8431422,14.0886166 C16.11654,14.8542195 16.254863,15.7233065 16.254863,16.6693346 C16.254863,19.1037861 15.4895507,20.9969621 13.9139013,22.4568266 C12.3403799,23.9143393 10.1882542,24.6536232 7.5156535,24.6536232 C5.89173104,24.6536232 4.39840335,24.3753137 3.07755932,23.8274306 C2.15185968,23.4435091 1.23724827,22.8978659 0.348957417,22.1993484 C-0.0156103194,21.9133113 -0.106780254,21.3963389 0.133688849,20.999202 L1.25920073,19.1389527 C1.55343098,18.6527792 2.21122094,18.553775 2.64265409,18.9244809 C3.18295356,19.3898232 3.72426104,19.7792324 4.25896039,20.0894606 C5.37786413,20.736236 6.53406467,21.0651675 7.65296841,21.0651675 C8.77187216,21.0651675 9.71941226,20.7483316 10.4661321,20.1235073 C11.2489167,19.4690042 11.6618695,18.5900616 11.6618695,17.5813159 C11.6618695,16.4889094 11.3060379,15.6188145 10.6055751,14.9949982 C9.97970579,14.4383793 8.76963211,13.9335025 6.79984631,13.4054426 C4.51040573,12.7861061 2.89309141,11.9951922 1.99371232,11.052412 C1.13073401,10.1481584 0.711285106,8.91385327 0.711285106,7.27916339 C0.711285106,5.10756591 1.4084999,3.39257508 2.84470638,2.03619462 C4.29524916,0.665590708 6.14205635,0 8.49186622,0 Z"></path></clipPath><clipPath id="i10"><path d="M1.73048152,0 C4.55131738,0 6.66054614,0.617141349 7.99908655,1.83381831 C9.3539793,3.06478594 10.0413379,4.98665531 10.0413379,7.55303778 C10.0413379,10.1195323 9.35297128,12.0358914 7.99572647,13.2503733 C6.6584181,14.4482798 4.55019736,15.0555207 1.73048152,15.0555207 L1.16500392,15.0555207 C0.522659091,15.0566406 0.00109762329,14.5340685 0.00109762329,13.889421 L0.00109762329,8.15479092 C0.00109762329,7.83246717 0.261335146,7.57174107 0.583050773,7.57174107 C0.9047664,7.57174107 1.16500392,7.83246717 1.16500392,8.15479092 L1.16500392,13.889421 L1.73048152,13.889421 C4.25484709,13.889421 6.10165428,13.3823043 7.22055803,12.3812863 C8.31974935,11.3978517 8.87640116,9.77525734 8.87640116,7.55415774 C8.87640116,5.33317014 8.3175093,3.69953302 7.21618993,2.69847026 C6.09840621,1.68200808 4.25260704,1.16717485 1.7293839,1.16717485 L1.1639063,1.16717485 L1.1639063,4.67089451 C1.1639063,4.99326306 0.903668776,5.25387715 0.581953149,5.25387715 C0.260237522,5.25387715 0,4.99326306 0,4.67089451 L0,1.16717485 C0,0.522538544 0.521561468,0 1.16500392,0 Z"></path></clipPath><clipPath id="i11"><path d="M0.58196435,0 C0.903635176,0 1.1639287,0.260714893 1.1639287,0.583038645 L1.16665645,7.53953896 C1.17225072,9.12506679 1.21694316,10.2868688 1.29900357,10.9973549 C1.38345336,11.7245433 1.52625639,12.3339121 1.72170054,12.8081021 C1.93360903,13.3229465 2.29268865,13.705748 2.82301991,13.9808095 C3.38627986,14.2733424 4.09895098,14.4218488 4.93672876,14.4218488 C5.77450654,14.4218488 6.48269757,14.2733424 7.0404694,13.9818175 C7.56755259,13.705748 7.93212033,13.3195867 8.15388503,12.8014943 C8.34608111,12.3339121 8.48877214,11.7245433 8.57333393,10.9973549 C8.64467945,10.3857461 8.68757636,9.42650259 8.70068063,8.14706321 C8.70404071,7.82809933 8.96422223,7.57174107 9.28264498,7.57174107 C9.60543583,7.57174107 9.8678574,7.83582704 9.86463916,8.15915875 C9.85027303,9.49134813 9.80536008,10.4715349 9.72841444,11.1326458 C9.63186839,11.9665661 9.46162478,12.6805389 9.22552377,13.2536212 C8.89500476,14.0248239 8.34160101,14.6154894 7.5774088,15.0159862 C6.8516334,15.3954278 5.9611025,15.5879485 4.93448871,15.5879485 C3.90787493,15.5879485 3.01622401,15.3954278 2.28496049,15.0159862 C1.51091206,14.6143695 0.95851634,14.020344 0.643453655,13.2513812 C0.407352644,12.679419 0.238229055,11.9654461 0.140562983,11.1316378 C0.047265003,10.3252684 0,8.99968681 0,7.19229949 L0,0.583038645 C0,0.260714893 0.260181521,0 0.58196435,0 Z"></path></clipPath><clipPath id="i12"><path d="M15.3119569,0 C15.8126076,0 16.2551289,0.313519766 16.4197724,0.804155202 C16.5438711,1.17487231 16.4583013,1.58299601 16.2233203,1.89432178 L8.17695752,12.5330215 C8.04188265,12.7113187 8.0441227,12.9588293 8.18244564,13.1347746 L16.9918806,24.3918029 C17.2345897,24.703151 17.3256477,25.1167513 17.2026691,25.4918251 C17.0401536,25.9858383 16.5977442,26.3015543 16.0937335,26.3015543 L13.003924,26.3015543 C12.676653,26.3015543 12.4119914,26.0298526 12.4219596,25.6998012 C12.4306958,25.3807253 12.7095817,25.1343347 13.0280045,25.1343347 L14.8166824,25.1343347 C15.3350294,25.1343347 15.6248916,24.5359414 15.3053488,24.1278289 L7.03173322,13.5550947 C6.70670232,13.1392545 6.7012142,12.5539647 7.01963696,12.1315168 L14.3467204,2.44324652 C14.7430969,1.91962161 14.3697929,1.16716701 13.713235,1.16716701 L9.11027333,1.16716701 C8.92804546,1.16716701 8.75780185,1.25628202 8.65352763,1.40588594 L2.11919697,10.808175 C1.81399049,11.2482063 1.25621866,11.4242636 0.746719846,11.230623 C0.28885413,11.0568056 0,10.6003109 0,10.109624 L0,6.22198292 C0,5.90296305 0.245957219,5.62465362 0.564379977,5.6147532 C0.89489899,5.60485278 1.16504872,5.8699691 1.16504872,6.19778064 L1.1639287,9.46829156 C1.1639287,9.67510291 1.43071836,9.75870773 1.54820885,9.58929177 L7.86402288,0.50053138 C8.08041147,0.187011614 8.43837107,0 8.81929115,0 Z"></path></clipPath><clipPath id="i13"><path d="M3.07236714,0.556520252 C3.16566512,0.176966675 3.54781723,-0.0782716259 3.94968176,0.0218525694 C4.2154634,0.086810101 4.41527564,0.306769743 4.48001301,0.571863669 L4.87090131,2.16153126 C5.0027281,2.70493461 5.10924236,3.10207152 5.18495597,3.34297437 L7.50732525,10.8839838 C7.61484754,11.2337465 7.55559828,11.6034445 7.34480981,11.9014651 C7.12080505,12.2183011 6.74638111,12.3943584 6.35874088,12.3943584 L3.81684694,12.3943584 C3.49842418,12.3943584 3.22065829,12.1479678 3.21069008,11.8288919 C3.20083387,11.4978325 3.46549548,11.2271388 3.79265443,11.2271388 L5.59891676,11.2271388 C5.99316512,11.2293787 6.27529911,10.8454573 6.15892864,10.4670237 L4.07266037,3.69284907 C4.02987546,3.55968613 3.98048241,3.38362882 3.92224118,3.16691706 C3.87945627,3.00418724 3.64884337,3.00306728 3.60381842,3.16478914 C3.55554539,3.33972649 3.50716037,3.51242393 3.45776732,3.68288145 L1.39681158,10.4692636 C1.28156114,10.8475852 1.56481515,11.2293787 1.95895151,11.2293787 C2.28622246,11.2293787 2.55077207,11.5010804 2.54091586,11.8311318 C2.53217968,12.1500957 2.25329376,12.3964863 1.934871,12.3964863 L1.20136744,12.3964863 C0.814847235,12.3964863 0.440423289,12.221661 0.216418536,11.905945 C0.00451003891,11.6089323 -0.0547392184,11.2392343 0.0517750419,10.8894716 L2.34110362,3.35070207 C2.48715472,2.84907314 2.63096577,2.31664537 2.77152876,1.76215444 C2.87031485,1.37386519 2.971341,0.97236045 3.07236714,0.556520252 Z"></path></clipPath><clipPath id="i14"><path d="M13.9997371,0 C16.5372629,0 18.8199834,0.512604521 20.7855131,1.5235901 C22.5587347,2.43557145 24.0970874,3.76440095 25.3609222,5.47278403 C25.5640945,5.74784558 25.63432,6.09872825 25.5508782,6.4342675 C25.4663164,6.7764145 25.2368235,7.05909175 24.9206408,7.21095798 L20.0376732,9.55850078 C19.5502389,9.79167592 18.9693945,9.65638506 18.6234192,9.22844932 C18.0404468,8.50574078 17.3926251,7.95124985 16.6975383,7.57830402 C15.9014254,7.15148824 14.9945422,6.93477648 13.9997371,6.93477648 C12.1155211,6.93477648 10.6793146,7.53988948 9.6086839,8.78405021 C8.53155705,10.0359386 7.98476144,11.7707527 7.98476144,14.0082037 C7.98476144,16.2457667 8.53043702,18.0191073 9.6086839,19.2764835 C10.6793146,20.526132 12.1155211,21.1333729 13.9997371,21.1333729 C15.6017071,21.1333729 16.9467436,20.7406039 17.9986699,19.9672732 C18.755246,19.4117744 19.2691129,18.7406959 19.5622231,17.9233509 C19.6172163,17.7704767 19.5007338,17.6098748 19.3383304,17.6098748 L14.1522843,17.6131227 C13.5089427,17.6131227 12.9873476,17.0917825 12.9873476,16.447135 L12.9873476,12.342715 C12.9873476,11.6980675 13.5089427,11.1756073 14.1522843,11.1756073 L20.828298,11.1756073 C21.1554569,11.1756073 21.4201185,11.447309 21.4102623,11.7772485 C21.4014142,12.0963243 21.1225282,12.342715 20.8041055,12.342715 L14.7364887,12.342715 C14.4136979,12.342715 14.1522843,12.604561 14.1522843,12.9280047 L14.1522843,15.8629652 C14.1522843,16.185289 14.4136979,16.447135 14.7364887,16.447135 L19.6556331,16.447135 C20.0366652,16.447135 20.3880166,16.6285681 20.6109014,16.9421562 C20.8195618,17.235809 20.8722029,17.6164826 20.7722968,17.9629974 C20.4308016,19.1510483 19.7302267,20.1422106 18.6871486,20.9089335 C17.4310419,21.8330103 15.8531524,22.3016005 13.9986171,22.3016005 C11.7850021,22.3016005 10.0106604,21.5393575 8.72375312,20.0377186 C7.4599183,18.5625106 6.8187047,16.5119805 6.8187047,14.0093236 C6.8187047,11.5066667 7.4599183,9.49242329 8.72487315,8.02281513 C10.0116685,6.52778394 11.7861221,5.76867679 13.9986171,5.76867679 C15.1856182,5.76867679 16.2792095,6.0316428 17.245454,6.54973511 C17.9986699,6.95347977 18.6970048,7.52555403 19.3262341,8.25375036 C19.4492127,8.394641 19.650145,8.43641542 19.8181486,8.35611447 L23.9455481,6.38476538 C24.1893773,6.26817781 24.2639709,5.95246181 24.0948473,5.74011788 C23.0101043,4.38485738 21.7177089,3.31451405 20.2529418,2.56089469 C18.4544076,1.63580984 16.3494349,1.16598769 13.9986171,1.16598769 C12.1945948,1.16598769 10.4914866,1.47072811 8.93890969,2.07136129 C7.39182086,2.66874659 6.00175936,3.56202464 4.80815003,4.72588442 C3.60580452,5.9183031 2.68682502,7.28241127 2.07966013,8.7763225 C1.47126322,10.2734816 1.16280868,12.0192713 1.16280868,13.7332541 C1.16280868,15.447125 1.48011141,17.1093658 2.10710071,18.6758503 C2.73184997,20.236847 3.62014082,21.6074509 4.74778075,22.7482396 C5.92929382,23.9418902 7.28754665,24.841664 8.78524243,25.421466 C10.2927944,26.0045158 12.0474237,26.3004086 13.9997371,26.3004086 C17.9503969,26.3004086 21.0468146,25.1563721 23.2010683,22.9012258 C25.3620422,20.6372318 26.4578735,17.3854354 26.4578735,13.2348731 L26.4570438,12.9407971 L26.4567534,12.8091773 C26.4545134,12.5495711 26.2448449,12.341595 25.9856714,12.341595 L24.3738452,12.341595 C24.0465743,12.341595 23.7830327,12.0589178 23.7918809,11.7398419 C23.8006171,11.420878 24.079503,11.1744874 24.3979257,11.1744874 L27.0046691,11.1744874 C27.3109956,11.1744874 27.5646809,11.4120303 27.5855134,11.7190107 C27.5976096,11.8971959 27.6052258,12.0940844 27.6118339,12.3075483 C27.6173221,12.5176523 27.6206821,12.8256406 27.6206821,13.2337531 C27.6206821,13.8355063 27.5964896,14.4185561 27.5503446,14.9851426 C27.5382484,15.1435045 27.7601251,15.1897588 27.8116462,15.0401325 L30.7192279,6.59598935 C30.8158859,6.31544001 31.1025,6.13501487 31.3923622,6.19560457 C31.7425936,6.26929777 31.9391578,6.63003606 31.8260354,6.9578476 L25.6200957,24.9846826 C25.4992451,25.3356772 25.7595386,25.7008954 26.1294825,25.7008954 L30.3623883,25.6986555 C30.6951474,25.6986555 30.9871376,25.4786958 31.0794275,25.1585 L31.9819427,22.0419944 C32.1268738,21.5437253 32.5826114,21.2004584 33.1008464,21.2004584 L41.939962,21.2004584 C42.4614451,21.2004584 42.9183028,21.5480932 43.0598738,22.0497221 L43.9855734,25.3334373 C44.0459427,25.5490291 44.2425069,25.6986555 44.4665116,25.6986555 L44.6212989,25.6986555 C44.9429697,25.6997754 45.2032632,25.9605015 45.2032632,26.2828253 C45.2032632,26.605149 44.9429697,26.8658751 44.6212989,26.8658751 L44.0887276,26.8658751 C43.5661245,26.8658751 43.1082588,26.5182403 42.9665758,26.0154914 L41.938842,22.367678 L33.1008464,22.367678 L32.0413039,26.025347 C31.8963729,26.5226081 31.4417552,26.8658751 30.9235202,26.8658751 L25.3741385,26.8658751 C24.9985945,26.8658751 24.643883,26.68321 24.4253663,26.3763417 C24.2079697,26.0704813 24.1508485,25.6744644 24.2738271,25.3191019 L25.2862166,22.3797736 C25.3126492,22.3027205 25.209383,22.2499705 25.163238,22.317056 C24.8239828,22.8109572 24.4528069,23.2774195 24.0422062,23.7074831 C21.6594676,26.2025243 18.2809159,27.4675162 13.9997371,27.4675162 C11.9036126,27.4675162 10.0073004,27.1453045 8.36579353,26.5093926 C6.71431848,25.8702329 5.21886275,24.8813105 3.92097921,23.5689444 C2.68245692,22.315936 1.70960428,20.815417 1.02661379,19.1092738 C0.345863339,17.4052586 0,15.6770523 0,13.7332541 C0,11.789456 0.337015152,9.97434098 1.00242127,8.33741118 C1.66894742,6.69723351 2.67584878,5.20220232 3.99344474,3.89420402 C5.30555259,2.61700455 6.82632086,1.63905772 8.52058081,0.983434629 C10.2071126,0.33105942 12.0506717,0 13.9997371,0 Z"></path></clipPath><clipPath id="i15"><path d="M15.972883,0.000272179237 C16.2913057,0.00900784728 16.5372629,0.288437229 16.5372629,0.607513104 L16.5372629,2.23996307 C16.5372629,2.88461057 16.0157799,3.40718272 15.3723262,3.40718272 L8.09900387,3.40718272 C7.95194475,3.40718272 7.83221421,3.52701816 7.83221421,3.67451656 L7.83221421,6.33329552 C7.83221421,6.48068192 7.95194475,6.60062937 8.09900387,6.60062937 L14.8760437,6.60062937 C15.5194973,6.60062937 16.0409804,7.12320151 16.0409804,7.76784901 L16.0409804,11.9921045 C16.0409804,12.636752 15.5194973,13.1592121 14.8760437,13.1592121 L8.14738889,13.1592121 C7.97277719,13.1592121 7.83221421,13.3011107 7.83221421,13.4749281 L7.83221421,15.9182273 C7.83221421,16.0931646 7.97389721,16.2339433 8.14738889,16.2339433 L15.3734462,16.2339433 C16.0146598,16.2328233 16.5362549,16.7553955 16.5362549,17.400043 L16.5362549,21.8640814 C16.5362549,22.5087289 16.0146598,23.031301 15.3712062,23.031301 L1.16504872,23.031301 C0.521595069,23.031301 0,22.5087289 0,21.8640814 L0,16.6772225 C0,16.3494109 0.271269757,16.084317 0.600668747,16.0942846 C0.919091504,16.1030203 1.16504872,16.3824497 1.16504872,16.7015255 L1.16504872,20.9554599 C1.16504872,21.4570888 1.57128134,21.8640814 2.07305199,21.8640814 L14.6651432,21.8640814 C15.0550235,21.8640814 15.3712062,21.5472454 15.3712062,21.1567162 L15.3712062,18.1074081 C15.3712062,17.7168789 15.0550235,17.400043 14.6651432,17.400043 L7.83109418,17.400043 C7.18764053,17.400043 6.66615746,16.8774708 6.66615746,16.2328233 L6.66615746,13.1592121 C6.66615746,12.5145646 7.18764053,11.9921045 7.83109418,11.9921045 L14.1722207,11.9921045 C14.559749,11.9921045 14.8749237,11.6775084 14.8749237,11.2879872 L14.8749237,8.47297422 C14.8749237,8.08468497 14.560869,7.76896897 14.1722207,7.76896897 L7.83109418,7.76896897 C7.18764053,7.76896897 6.66615746,7.24639683 6.66615746,6.60174932 L6.66615746,3.40718272 C6.66615746,2.76253521 7.18764053,2.23996307 7.83109418,2.23996307 L14.5949177,2.23996307 C15.0242228,2.23996307 15.3723262,1.89120832 15.3723262,1.46114467 L15.3723262,0.583322023 C15.3723262,0.255398484 15.643484,-0.00969544199 15.972883,0.000272179237 Z"></path></clipPath><clipPath id="i16"><path d="M18.8259842,0 C19.2168725,0 19.5792002,0.194760599 19.7955888,0.520332227 C19.8230294,0.56210664 19.8394937,0.608360882 19.8614462,0.65237521 C20.0514022,0.267333841 20.4444186,0 20.9012762,0 L35.1085537,0 C35.7520074,0 36.2734905,0.522572142 36.2734905,1.16721965 L36.2734905,1.65888096 C36.2734905,1.98669251 36.0023327,2.25189843 35.6729337,2.24193081 C35.354511,2.23319514 35.1085537,1.95376576 35.1085537,1.63468988 C35.1085537,1.37732366 34.8998933,1.16822761 34.6429599,1.16822761 L21.8103995,1.16822761 C21.3086289,1.16822761 20.9023963,1.57533214 20.9023963,2.07808103 L20.9023963,15.7728086 C20.9023963,16.0917725 20.6564391,16.3700819 20.3380163,16.3800496 C20.0074973,16.3899052 19.7373475,16.1248113 19.7373475,15.7969997 L19.7384676,2.34530288 C19.7384676,2.27060172 19.6363214,2.25077847 19.6077608,2.31898388 L9.86837012,25.5854278 C9.68502223,26.0199712 9.2644533,26.3004086 8.79449133,26.3004086 L4.35958922,26.3004086 C3.88852962,26.3004086 3.46689668,26.0199712 3.28572163,25.5854278 L0.0454704714,17.8452899 C-0.0808010082,17.5439093 0.0652276907,17.1973945 0.368283722,17.0774471 C0.66365639,16.9608595 0.99634825,17.1016381 1.11932686,17.394283 L4.13887734,24.6084889 C4.27284338,24.9275648 4.58353797,25.1343089 4.92839329,25.1343089 L8.22574326,25.1343089 C8.57048658,25.1343089 8.8823012,24.9275648 9.01513601,24.6084889 L18.5514664,1.82609061 C18.6821732,1.51373448 18.4526803,1.16721965 18.1134251,1.16721965 L15.8569132,1.16721965 C15.5297543,1.16721965 15.2650926,0.895405975 15.2749489,0.565466512 C15.283797,0.246390637 15.562683,0 15.8811057,0 Z"></path></clipPath><clipPath id="i17"><path d="M7.14688054,0 C7.63659974,0 8.07690348,0.310228211 8.2427006,0.773330613 L13.1256458,14.447227 C13.180527,14.6254122 13.277073,14.9906304 13.4231241,15.5703203 C13.559319,15.0499881 13.6635932,14.68477 13.7382988,14.4593225 L18.5904658,0.77657849 C18.7562293,0.311348169 19.1953906,0 19.6884251,0 L19.9574548,0 C20.2847257,0 20.5492754,0.271701675 20.5394191,0.601753133 C20.530683,0.920717013 20.251685,1.16710765 19.9332623,1.16710765 C19.7862032,1.16710765 19.6554964,1.25950414 19.6061033,1.39815487 L14.8384982,14.8398841 C14.7671527,15.0554759 14.6496622,15.4756839 14.4937548,16.078557 C14.3740243,16.5416594 14.2477976,17.0466482 14.1149628,17.5934115 C14.028161,17.9531418 13.6834177,18.1940446 13.3056336,18.1368148 C13.0125234,18.0916805 12.7819105,17.8596253 12.7126931,17.5702283 C12.5458095,16.8771987 12.4063666,16.3073643 12.2943642,15.8607253 C12.1560412,15.3085863 12.0638633,14.9609515 12.0198464,14.815693 L7.30718955,1.62035443 C7.20946747,1.34865275 6.95253402,1.16710765 6.66484471,1.16710765 L2.19041696,1.16710765 C1.70290422,1.16710765 1.37239641,1.66436875 1.56125481,2.11425566 L6.68680838,14.3558385 C6.81307986,14.657331 6.66703996,15.0038459 6.36399513,15.1236813 C6.06862246,15.2402689 5.7359306,15.0994902 5.61295199,14.8068453 L0.0910071173,1.61710655 C-0.0824799722,1.20350627 -0.00561857636,0.724948452 0.301827287,0.382801454 C0.52911707,0.130923025 0.86181677,0 1.20109997,0 Z"></path></clipPath><clipPath id="i18"><path d="M59.877221,0 C61.0158372,0 62.1578134,0.138608173 63.2711171,0.411425326 C64.2649141,0.654540087 65.2761836,1.01096318 66.2764768,1.47189287 C66.3478223,1.50489801 66.4125597,1.54669483 66.473041,1.59400183 C66.5476346,1.65230681 66.6552689,1.60059838 66.6552689,1.50709313 C66.6563889,1.00656175 67.0626215,0.600637656 67.5633841,0.600637656 L73.4278286,0.600637656 C74.0712822,0.600637656 74.5928773,1.12317172 74.5928773,1.76780802 L74.5928773,3.50812109 C74.5928773,3.83593263 74.3216076,4.10104896 73.9922086,4.09114854 C73.6737858,4.08235687 73.4278286,3.80293869 73.4278286,3.48391881 L73.4278286,2.32554683 C73.4278286,2.01752493 73.1786233,1.76780802 72.8711768,1.76780802 L68.3802175,1.76780802 C68.072771,1.76780802 67.8235657,2.01752493 67.8235657,2.32554683 L67.8235657,24.4809257 C67.8235657,25.1739554 68.3835775,25.7349421 69.0753042,25.7349421 L72.1772101,25.7349421 C72.8689367,25.7349421 73.4289486,25.1728354 73.4289486,24.4809257 L73.4289486,16.8618552 C73.4289486,16.3987528 73.6858821,15.9619694 74.107571,15.7739286 C74.6312941,15.5395215 75.2077704,15.6957556 75.5360493,16.1490023 L82.3129771,25.5017669 C82.4184834,25.6481454 82.588615,25.7349421 82.7687148,25.7349421 L83.7294712,25.7339341 C84.0566301,25.7339341 84.3212918,26.0056358 84.3121945,26.3356872 C84.3025874,26.6546511 84.0237014,26.9010418 83.7052787,26.9010418 L82.4843408,26.9010418 C82.1110369,26.9010418 81.7606934,26.7228565 81.5421768,26.420356 L74.9771575,17.3612443 C74.8574269,17.1951546 74.5961254,17.2809433 74.5961254,17.4855595 L74.5961254,25.7339341 C74.5961254,26.3785816 74.0746423,26.9010418 73.4311887,26.9010418 L67.8268137,26.9010418 C67.3656999,26.9010418 66.9670835,26.63046 66.7793675,26.2399309 C66.6915576,26.0572658 66.4675529,25.9769649 66.2786049,26.0638736 C65.2794317,26.5237281 64.2681622,26.8812185 63.2744771,27.1243613 C62.1610615,27.3971829 61.0190853,27.5358336 59.8804691,27.5358336 C58.461847,27.5358336 57.1321548,27.3641442 55.9275692,27.025357 C54.7132395,26.68433 53.5799994,26.15739 52.5611138,25.4611125 C50.6176485,24.1552421 49.1111046,22.4821377 48.0877389,20.4909653 C47.6671699,19.6747404 47.3356429,18.8111412 47.0885657,17.9047596 C47.0391726,17.7220946 46.7723829,17.7506535 46.7580466,17.9388063 C46.6734848,19.0663795 46.54177,19.9893364 46.3573021,20.7186527 C46.0048307,22.1103118 45.3986738,23.3181859 44.5565279,24.3103562 C43.6353084,25.4038827 42.3616173,26.235563 40.7705116,26.7767265 C39.2201747,27.3047864 37.3348387,27.5721203 35.13332,27.5721203 C32.9318012,27.5721203 31.0311209,27.3047864 29.4872801,26.7767265 C27.9028945,26.235563 26.6269634,25.4061226 25.6936476,24.3114762 C24.860238,23.317066 24.2585612,22.1103118 23.9017216,20.7220126 C23.7468223,20.1202594 23.6283238,19.3854554 23.542642,18.5120005 C23.5173295,18.2490345 23.1506337,18.210508 23.0694319,18.4624984 C22.9014284,18.9772309 22.7048642,19.474492 22.4786194,19.9519298 C21.6145211,21.7702927 20.3342219,23.2817873 18.6696426,24.4457591 C17.4025597,25.3313094 15.9388006,25.9714771 14.3203663,26.3466628 C12.7303805,26.7151288 10.253336,26.9021617 6.95705003,26.9021617 L1.16499272,26.9021617 C0.521550268,26.9021617 0,26.3795896 0,25.7349421 L0,7.79288787 C0,7.4474594 0.299751961,7.17244265 0.653321064,7.21425066 C0.950877778,7.24945092 1.16499272,7.51896868 1.16499272,7.81818771 L1.16499272,25.2091221 C1.16499272,25.499527 1.39997371,25.7349421 1.68984706,25.7349421 L6.95814766,25.7349421 C10.1654141,25.7349421 12.5547608,25.5578768 14.0579447,25.2091221 C15.53044,24.8670871 16.8590122,24.288405 18.0031164,23.4875235 C19.4996922,22.4413712 20.6504046,21.0827509 21.4256851,19.4491809 C22.2063416,17.8023955 22.602718,15.8905162 22.602718,13.7684208 C22.602718,11.6464374 22.2074617,9.73559965 21.4256851,8.08770547 C20.6515246,6.4551995 19.4996922,5.09661273 18.0031164,4.04935172 C16.8469159,3.23860333 15.484295,2.65116326 13.9491904,2.30353967 C12.3823892,1.94822197 9.64389745,1.76780802 5.80961928,1.76780802 L1.94019477,1.76780802 C1.51196488,1.76780802 1.16499272,2.11543161 1.16499272,2.54445371 L1.16499272,4.32436847 C1.16499272,4.65219122 0.893778967,4.91730754 0.564379977,4.90740712 C0.245957219,4.89860425 0,4.61918607 0,4.30016619 L0,1.76890558 C0,1.12426928 0.521550268,0.601737454 1.16499272,0.601737454 L5.80303354,0.601737454 C9.78001394,0.601737454 12.5262002,0.785448553 14.2006357,1.16496853 C15.8839195,1.54669483 17.3859833,2.194635 18.6652745,3.09338965 C20.3276138,4.25726062 21.609033,5.76875519 22.4720113,7.58717409 C22.7465291,8.16470254 22.9749019,8.77194347 23.1604899,9.40558179 C23.1956586,9.52549563 23.3713904,9.50129335 23.3713904,9.37588052 L23.3713904,1.76561291 C23.3713904,1.1209654 23.8928734,0.598436939 24.5363271,0.598436939 L30.1922231,0.598436939 C30.8356768,0.598436939 31.3572718,1.1209654 31.3572718,1.76561291 L31.3572718,3.43770937 C31.3572718,3.76553211 31.0860021,4.03064844 30.7566031,4.02074801 C30.4381803,4.01194515 30.1922231,3.73252696 30.1922231,3.41350709 L30.1922231,2.38604693 C30.1922231,2.04392233 29.9155772,1.76671047 29.574082,1.76671047 L25.1555882,1.76671047 C24.814093,1.76671047 24.5374471,2.04503109 24.5374471,2.38714449 L24.5374471,14.472538 C24.5374471,17.1698435 24.7010826,19.1742314 25.0249934,20.4304876 C25.3379281,21.6482174 25.8605312,22.7009774 26.5775704,23.5568488 C27.3692032,24.4864135 28.4748907,25.1992664 29.858456,25.6723365 C31.2814462,26.15851 33.0646361,26.4049006 35.1278318,26.4049006 C37.1910276,26.4049006 38.9610012,26.15851 40.3905995,25.6723365 C41.778533,25.2003864 42.8787323,24.4886534 43.662749,23.5568488 C44.3907644,22.6998574 44.9156075,21.6493373 45.2230541,20.4326156 C45.5414768,19.1742314 45.7028722,17.1687236 45.7028722,14.472538 L45.7028722,2.38714449 C45.7028722,2.04503109 45.4261144,1.76780802 45.0847311,1.76780802 L40.6827017,1.76780802 C40.3412065,1.76780802 40.0645606,2.04503109 40.0645606,2.38714449 L40.0645606,10.6794662 C40.0645606,11.0072777 39.7932908,11.2723716 39.4638919,11.262516 C39.1454691,11.2536684 38.8995119,10.9742838 38.8995119,10.6552639 L38.8995119,1.76780802 C38.8995119,1.12317172 39.4211069,0.600637656 40.0645606,0.600637656 L45.7028722,0.600637656 C46.3463259,0.600637656 46.867809,1.12317172 46.867809,1.76780802 L46.867809,9.19436901 C46.867809,9.38798726 47.1413188,9.42978407 47.197208,9.24387113 C47.292746,8.92594881 47.4003803,8.61463424 47.5201108,8.31101378 C48.1679326,6.67081371 49.1593776,5.16481814 50.4638693,3.83373752 C50.6757778,3.61592819 50.8931744,3.41131197 51.1160591,3.21440105 C51.4170095,2.94928473 51.8989557,3.05488551 52.0493749,3.44871855 C52.1350567,3.67423318 52.0603512,3.92943788 51.8803633,4.09005098 C51.6815591,4.26826981 51.487235,4.45307398 51.297279,4.64888734 C50.0993015,5.86996574 49.1945463,7.24614705 48.6027258,8.74003588 C48.0097852,10.2372286 47.7089468,11.9302347 47.7089468,13.7695408 C47.7089468,16.0566058 48.1832769,18.1390547 49.1177127,19.9574176 C50.0499085,21.7702927 51.4268657,23.2972427 53.2078155,24.4952612 C54.125787,25.1233333 55.1436646,25.5964033 56.2372558,25.9032717 C57.3385752,26.2134999 58.5628731,26.3708539 59.874981,26.3708539 C60.9191791,26.3708539 61.9689774,26.2431788 62.9922311,25.9924203 C63.8180247,25.790044 64.6569225,25.5028869 65.4935802,25.1365488 C65.67032,25.0596077 65.7866904,24.8846704 65.7866904,24.6910297 L65.7866904,20.3182679 C65.7866904,19.922251 65.3343128,19.7000514 65.0192502,19.9398343 C64.6261218,20.2390869 64.2308654,20.4932053 63.8377371,20.6988294 C62.8275876,21.2268894 61.7306364,21.4942232 60.5776839,21.4942232 C58.4991438,21.4942232 56.7620989,20.762667 55.4137023,19.3182579 C54.0763939,17.8849364 53.3977715,16.0632136 53.3977715,13.9059516 C53.3977715,11.6035431 54.0631777,9.70149694 55.3741655,8.2527088 C56.6994896,6.78742368 58.4508708,6.04377194 60.5776839,6.04377194 C61.7306364,6.04377194 62.8275876,6.31109458 63.8377371,6.83912091 C64.1385755,6.99533258 64.4394138,7.18014795 64.7413723,7.39136073 C65.1872537,7.70377286 65.7966587,7.38365542 65.7966587,6.84021847 L65.7889305,2.86897258 C65.7878105,2.68086453 65.6462395,2.46745664 65.4737558,2.39264348 C64.6458342,2.03182679 63.8125365,1.74690962 62.9933512,1.54559727 C61.9699854,1.2947828 60.9214192,1.16717485 59.876101,1.16717485 C58.132448,1.16717485 56.531486,1.45868857 55.117232,2.03402191 C54.9404923,2.10553119 54.7658806,2.18253946 54.5935089,2.26503553 C54.3212311,2.3948498 53.9962002,2.28923781 53.8501491,2.02412148 C53.6843856,1.7238049 53.8062442,1.34538248 54.1159308,1.20016879 C54.3025267,1.11216926 54.4903547,1.02966423 54.6803108,0.952659319 C56.2340077,0.321219474 57.9831488,0 59.877221,0 Z M60.581044,7.21094678 C58.7715336,7.21094678 57.3517914,7.80717853 56.2405039,9.03596223 C55.1293283,10.2636372 54.5660683,11.9026837 54.5660683,13.9059516 C54.5660683,15.7837842 55.1227201,17.2941588 56.2680564,18.5207362 C57.4033125,19.736338 58.8143185,20.3270036 60.581044,20.3270036 C61.5440404,20.3270036 62.4597718,20.1037961 63.3019177,19.6637648 C63.8640576,19.3699999 64.4372858,18.9563997 65.0071539,18.4349475 C65.3518972,18.1169916 65.8350755,18.0389305 66.2621405,18.2270834 C66.4510885,18.3117522 66.659637,18.1863169 66.659637,17.9839406 L66.6585169,9.55189303 C66.6585169,9.3472768 66.4477285,9.21966885 66.2611325,9.30327368 C65.8339554,9.49358804 65.3585054,9.41768853 65.0170101,9.10636276 C64.4416539,8.58272666 63.8651777,8.16800642 63.3019177,7.87428638 C62.4597718,7.4342663 61.5440404,7.21094678 60.581044,7.21094678 Z"></path></clipPath><clipPath id="i19"><path d="M28.4202055,0 C29.8531639,0 31.2322491,0.196888518 32.5201645,0.582937848 C33.6511645,0.92183697 34.7437477,1.42122599 35.7692414,2.06699345 C36.2490596,2.36949396 36.4390156,2.99431822 36.2106428,3.52013823 L36.0844161,3.80953524 C35.9525893,4.11203574 35.5979898,4.24508669 35.3003995,4.10318808 C35.0171455,3.96789722 34.8930468,3.63347793 35.0171455,3.34520088 C35.090619,3.17586332 35.0258816,2.97998276 34.8677343,2.88545835 C34.0168522,2.37722167 33.1142251,1.9789648 32.1852774,1.70065538 C31.0060043,1.34641284 29.7378014,1.16710765 28.4190854,1.16710765 C26.0264907,1.16710765 24.0588329,1.8788406 22.5732334,3.28259526 C21.0766576,4.69609355 20.3486422,6.4815297 20.3486422,8.73779596 C20.3486422,10.4274758 20.8076279,11.7651529 21.7123831,12.7123009 C22.650067,13.6936076 24.3125183,14.5120725 26.65348,15.1446245 C28.5793608,15.6604769 29.7510177,16.1456425 30.3417182,16.6703425 C30.9774437,17.235809 31.3003466,18.0323228 31.3003466,19.0377086 C31.3003466,19.9706331 30.9324188,20.7505715 30.2088834,21.3566924 C29.5160367,21.9363824 28.6639226,22.2301473 27.5824277,22.2301473 C26.5008207,22.2301473 25.4094696,21.9144313 24.3355908,21.2928549 C23.7294339,20.9419722 23.1156609,20.4843576 22.5007678,19.9277387 C22.082439,19.5481852 21.4202809,19.6483094 21.1282907,20.132243 L19.6766279,22.5315278 C19.443887,22.9165692 19.5262087,23.4159582 19.8731921,23.7008754 C20.8504128,24.5051168 21.8650424,25.1265812 22.8950162,25.553397 C24.251029,26.1166236 25.7827735,26.4015407 27.4451128,26.4015407 C30.1935391,26.4015407 32.4126422,25.6370578 34.0420528,24.1276911 C35.6791915,22.6097008 36.4764244,20.6470874 36.4764244,18.1268472 C36.4764244,17.1466604 36.3325014,16.2457667 36.0481273,15.447125 C35.7681214,14.6649467 35.3564007,13.9862525 34.8227093,13.4317616 C34.0233484,12.6100488 32.261103,11.8246227 29.5896223,11.1006822 L29.2778077,11.0138855 C27.8974904,10.6464274 26.9686547,10.2547783 26.4470596,9.81810691 C25.8584871,9.3263336 25.5610088,8.6552551 25.5610088,7.85997332 C25.5610088,7.06457955 25.9068721,6.37927759 26.560182,5.87764865 C27.1761951,5.40457863 27.9699559,5.16479574 28.9198481,5.16479574 C29.7926826,5.16479574 30.6832135,5.35070867 31.5671362,5.71592679 C32.0513225,5.91606319 32.5333807,6.17242145 33.0055828,6.48040974 C33.2734925,6.6553471 33.6335801,6.54861515 33.7609268,6.25496231 L33.9531229,5.8105632 C34.0706134,5.53774157 34.3901561,5.41779412 34.6580658,5.54535728 L34.759092,5.59385143 C35.0137854,5.71480684 35.1269078,6.01730734 35.0137854,6.27579352 L34.570256,7.29562677 C34.428573,7.62343831 34.148567,7.86434116 33.8038237,7.95673764 C33.4612084,8.04913413 33.1021288,7.98092872 32.8177548,7.76970475 C32.263231,7.35834438 31.6933629,7.02941288 31.1223748,6.79399783 C30.3801351,6.48701749 29.6072066,6.33190339 28.9198481,6.33190339 C28.2324895,6.33190339 27.6768457,6.49037737 27.269493,6.80385345 C26.8983172,7.08765067 26.7259455,7.40123875 26.7259455,7.85997332 C26.7259455,8.31870789 26.8742367,8.65637506 27.1936674,8.9237089 C27.458329,9.1447885 28.0853184,9.49130333 29.5841342,9.8895602 L29.8981888,9.97646889 C32.8111466,10.7662629 34.6964826,11.632102 35.6594791,12.6210244 C36.3105489,13.2987106 36.8090715,14.1160556 37.1450786,15.0554759 C37.4733576,15.9828007 37.6402411,17.0158494 37.6402411,18.1302071 C37.6402411,20.9540677 36.6959491,23.2608441 34.8315575,24.9880425 C32.9813903,26.7019133 30.4954975,27.5720083 27.4451128,27.5720083 C25.6279862,27.5720083 23.9479506,27.2562923 22.4491348,26.6348279 C21.3093986,26.1617579 20.1959829,25.4676082 19.1254642,24.5875457 C19.0552387,24.5303158 18.9542126,24.6007612 18.9837812,24.6865499 L19.2143941,25.3542685 C19.3670533,25.8020275 19.2385866,26.3113842 18.8619226,26.6282201 C18.643406,26.8118931 18.361272,26.9021617 18.076898,26.9021617 L15.8753793,26.9021617 C15.5481083,26.9021617 15.2834467,26.630348 15.2934149,26.3004086 C15.3021511,25.9813327 15.581037,25.7349421 15.8994598,25.7349421 L17.4103718,25.7349421 C17.7539951,25.7349421 17.9955842,25.395035 17.8835819,25.0693514 L9.99984657,2.21874769 C9.90643659,1.94816597 9.65174318,1.76662087 9.36624912,1.76662087 L2.58271317,1.76662087 C2.29721911,1.76662087 2.04252571,1.94816597 1.94911573,2.21874769 L1.13877853,4.57401819 C1.04223248,4.85456753 0.755618399,5.03499267 0.465756247,4.97451497 C0.115412813,4.90070977 -0.0810393559,4.53997148 0.0319710423,4.21215994 L1.00482369,1.38605933 C1.16733914,0.915229221 1.60986053,0.599513218 2.10614306,0.599513218 L9.84393926,0.599513218 C10.3402218,0.599513218 10.7827432,0.915229221 10.9452586,1.38493937 L18.125171,22.1982285 C18.1822922,22.3631982 18.4040569,22.3863813 18.4941068,22.237875 C18.7905771,21.7461016 19.2736434,20.9441001 19.2781235,20.9376044 L20.717578,18.5570228 C20.906414,18.2445547 21.2238287,18.0421784 21.5861564,18.0025319 C21.9496041,17.9618774 22.2987156,18.0905606 22.5490409,18.3524066 C23.3484018,19.1884548 24.1445147,19.8385901 24.9141951,20.2841092 C25.807974,20.8011936 26.7051131,21.0640476 27.5790676,21.0640476 C28.3598362,21.0640476 28.9747292,20.867159 29.4600355,20.4611745 C29.9135331,20.0817329 30.1331698,19.6163906 30.1331698,19.0377086 C30.1331698,18.3711099 29.9475819,17.8826965 29.5665498,17.5427894 C29.2657114,17.2754555 28.4641104,16.8375522 26.3492815,16.2710777 C23.7634826,15.5725602 21.9715566,14.6715545 20.8702372,13.5186703 C19.7513335,12.3470828 19.1837055,10.7388239 19.1837055,8.73779596 C19.1837055,6.1790292 20.055532,4.05704583 21.7738724,2.43333153 C23.4845967,0.818352903 25.7201642,0 28.4202055,0 Z"></path></clipPath><clipPath id="i20"><path d="M10.8023603,0 C11.6753068,0 12.5657257,0.184804177 13.4496485,0.550033499 C14.0019322,0.778840804 14.5498478,1.07805983 15.0824191,1.44438671 C15.2449346,1.55659525 15.4689393,1.49279127 15.548013,1.31127977 C15.6566553,1.06266042 15.9290451,0.928455919 16.1914666,0.995552569 L16.2221553,1.00325788 C16.5307218,1.08246127 16.7316541,1.4025787 16.6349961,1.70619916 C16.6295079,1.72490245 16.6218918,1.74360574 16.6141636,1.76230903 L16.4538882,2.13083103 C16.3122052,2.45864257 16.0321993,2.69956782 15.687456,2.79196431 C15.3448407,2.88437199 14.9857611,2.81616659 14.701387,2.60495381 C14.1479833,2.19353745 13.5781152,1.8657147 13.006007,1.62920209 C12.2637673,1.32227775 11.4908389,1.16716365 10.8034803,1.16716365 C10.1161217,1.16716365 9.56047793,1.32558163 9.15312529,1.63910251 C8.78194941,1.92401969 8.60957775,2.23863813 8.60957775,2.69626394 C8.60957775,3.15388975 8.7578689,3.49161292 9.07729968,3.75892436 C9.3419613,3.97894 9.97007063,4.32546603 11.4677664,4.7236893 L11.7828291,4.81169556 C14.6958989,5.60044798 16.5812349,6.46624228 17.5442314,7.4551647 C18.1964212,8.13285095 18.6959518,8.95120385 19.0298309,9.88961619 C19.3581098,10.8136931 19.5249934,11.8466298 19.5249934,12.9609875 C19.5249934,15.7848482 18.5807013,18.0917365 16.7163098,19.8188229 C14.8661425,21.5326938 12.3801378,22.4029007 9.32986504,22.4029007 C7.51262648,22.4029007 5.83270283,22.0871847 4.33388702,21.4656083 C2.97451417,20.9012618 1.64818203,20.0377746 0.39095535,18.8991138 C-0.0263655063,18.5207922 -0.124031579,17.8992158 0.16807062,17.4174101 L0.621456241,16.7265084 C0.789459806,16.448199 1.15290752,16.3612903 1.42854537,16.5339877 C1.6986951,16.7023173 1.78213687,17.0576798 1.61738138,17.3305014 L1.35719985,17.7265184 C1.24407745,17.8980959 1.27700615,18.1269032 1.43179344,18.2610741 C2.5090323,19.1994864 3.63443218,19.9134593 4.77864846,20.3886572 C6.13466123,20.9518838 7.66640574,21.236801 9.32874502,21.236801 C12.0771713,21.236801 14.2962744,20.4723181 15.925685,18.9629514 C17.5628237,17.4448491 18.3600567,15.4823477 18.3600567,12.9621074 C18.3600567,11.9819207 18.2161336,11.079907 17.9317596,10.2823853 C17.6528737,9.50020699 17.2411529,8.82252074 16.7063416,8.26702185 C15.9069806,7.44530908 14.1458552,6.65977093 11.4732545,5.93596483 L11.1603199,5.84905614 C9.78011459,5.48274046 8.85116688,5.09001618 8.32957181,4.65328878 C7.74099932,4.16154906 7.44352101,3.4894178 7.44352101,2.69516638 C7.44352101,1.90091497 7.78826433,1.21447065 8.44269421,0.712841712 C9.05870729,0.239805287 9.85258013,0 10.8023603,0 Z"></path></clipPath><clipPath id="i21"><path d="M9.2365,0 C10.6694584,0 12.0485437,0.19581161 13.336459,0.581935977 C14.467459,0.920756702 15.5600422,1.42018828 16.585536,2.06593335 C17.059866,2.36734749 17.2498221,2.99218295 17.0214492,3.51801417 L16.5822879,4.52897735 C16.4559492,4.81939351 16.116694,4.9514029 15.8279519,4.82269739 C15.5303616,4.68959045 15.3952867,4.34306441 15.5226334,4.04935558 L15.7301738,3.56862504 C15.8620006,3.26610214 15.74003,2.91407712 15.4535279,2.7512689 C14.6706313,2.30684739 13.8449498,1.95261605 12.9972038,1.69850891 C11.8179308,1.34428877 10.5497279,1.16497238 9.23101189,1.16497238 C6.83729709,1.16497238 4.87075936,1.87781409 3.38515984,3.28150155 C1.88858408,4.69508944 1.16056863,6.47940563 1.16056863,8.73673585 C1.16056863,10.4264492 1.61955437,11.7641712 2.52430957,12.7113192 C3.46199347,13.6925139 5.12444474,14.5109788 7.46540642,15.1435308 C9.39128729,15.6606151 10.5629442,16.1456687 11.1536447,16.6704808 C11.7893702,17.2358353 12.112273,18.032349 12.112273,19.0377348 C12.112273,19.9706594 11.7443452,20.7505977 11.0208099,21.3567187 C10.3279632,21.9364087 9.47584908,22.2301735 8.39435413,22.2301735 C7.31274718,22.2301735 6.220276,21.9155775 5.14751723,21.2940011 C4.53038414,20.9365107 3.90339483,20.4689284 3.27752555,19.8980861 C2.87902109,19.5349959 2.25091177,19.6207847 1.97202585,20.0817591 L1.89519222,20.2082023 C1.72058051,20.4942395 1.35601278,20.5977235 1.05741444,20.4458573 C0.78838473,20.269912 0.708191028,19.9211572 0.870706477,19.6527034 L1.53275253,18.558169 C1.72270856,18.2457009 2.03900327,18.0444446 2.40133096,18.0036781 C2.76477867,17.9641436 3.11400208,18.0917068 3.36432739,18.3535528 C4.16368836,19.1884811 4.95968925,19.8386164 5.7304896,20.2852554 C6.62426857,20.8033477 7.52140761,21.0651938 8.39547416,21.0651938 C9.17613072,21.0651938 9.79102377,20.8683053 10.2763301,20.4623207 C10.7298277,20.0828791 10.9494644,19.6175368 10.9494644,19.0388548 C10.9494644,18.3722561 10.7638764,17.8827227 10.3828443,17.5439356 C10.0820059,17.2754818 9.28040494,16.8386984 7.16568806,16.2711039 C4.58089721,15.5725865 2.78897118,14.6727007 1.68653179,13.5186965 C0.567628045,12.3472211 0,10.7388614 0,8.73784461 C0,6.17798029 0.871826501,4.05704968 2.59016697,2.43334658 C4.29977124,0.818450829 6.53645871,0 9.2365,0 Z"></path></clipPath></defs><g transform="translate(-160.0 -22.0)"><g transform="translate(160.0 22.0)"><g transform="translate(2.9315814922683217 2.0241774812557054)"><g clip-path="url(#i0)"><polygon points="0,0 20.8569146,0 20.8569146,23.385305 0,23.385305 0,0" stroke="none" fill="#FFDA00"></polygon></g></g><g transform="translate(26.30843756542004 2.0252750395484895)"><g clip-path="url(#i1)"><polygon points="0,0 20.5802127,0 20.5802127,24.0540539 0,24.0540539 0,0" stroke="none" fill="#FFDA00"></polygon></g></g><g transform="translate(49.47769723323159 1.4245522670138442)"><g clip-path="url(#i2)"><polygon points="0,0 17.4958913,0 17.4958913,24.6194981 0,24.6194981 0,0" stroke="none" fill="#FFDA00"></polygon></g></g><g transform="translate(69.58906801051319 2.0252750395484895)"><g clip-path="url(#i3)"><polygon points="0,0 20.3040054,0 20.3040054,23.3840954 0,23.3840954 0,0" stroke="none" fill="#FFDA00"></polygon></g></g><g transform="translate(92.70821743632939 1.4234659082954764)"><g clip-path="url(#i4)"><polygon points="7.42461648e-15,0 16.3601204,0 16.3601204,24.6558631 7.42461648e-15,24.6558631 7.42461648e-15,0" stroke="none" fill="#FFDA00"></polygon></g></g><g transform="translate(1.9266793173876806 30.486249522518154)"><g clip-path="url(#i5)"><polygon points="0,0 22.8618683,0 22.8618683,23.3852714 0,23.3852714 0,0" stroke="none" fill="#FFDA00"></polygon></g></g><g transform="translate(28.032266146261975 30.485241560820704)"><g clip-path="url(#i6)"><polygon points="0,0 13.6243051,0 13.6243051,23.3830314 0,23.3830314 0,0" stroke="none" fill="#FFDA00"></polygon></g></g><g transform="translate(44.29725130056431 29.919775048548146)"><g clip-path="url(#i7)"><polygon points="0,0 24.7109724,0 24.7109724,24.5502511 0,24.5502511 0,0" stroke="none" fill="#FFDA00"></polygon></g></g><g transform="translate(68.80451158456884 30.485241560820704)"><g clip-path="url(#i8)"><polygon points="2.49106291e-15,0 23.0815129,0 23.0815129,23.3841514 2.49106291e-15,23.3841514 2.49106291e-15,0" stroke="none" fill="#FFDA00"></polygon></g></g><g transform="translate(94.29033817679078 29.884496389137198)"><g clip-path="url(#i9)"><polygon points="-5.27355937e-15,0 16.254863,0 16.254863,24.6536232 -5.27355937e-15,24.6536232 -5.27355937e-15,0" stroke="none" fill="#FFDA00"></polygon></g></g><g transform="translate(8.244929445208896 6.215271019701242)"><g clip-path="url(#i10)"><polygon points="0,0 10.0413379,0 10.0413379,15.0566406 0,15.0566406 0,0" stroke="none" fill="#30CDC9"></polygon></g></g><g transform="translate(31.67335141262481 6.215271019701241)"><g clip-path="url(#i11)"><polygon points="0,0 9.86466845,0 9.86466845,15.5879485 0,15.5879485 0,0" stroke="none" fill="#30CDC9"></polygon></g></g><g transform="translate(74.90346878579544 0.600719412662329)"><g clip-path="url(#i12)"><polygon points="0,0 17.2572445,0 17.2572445,26.3015543 0,26.3015543 0,0" stroke="none" fill="#00D2CD"></polygon></g></g><g transform="translate(76.59758679295834 33.54237598992025)"><g clip-path="url(#i13)"><polygon points="6.61276589e-15,-8.11850587e-16 7.55983911,-8.11850587e-16 7.55983911,12.3964863 6.61276589e-15,12.3964863 6.61276589e-15,-8.11850587e-16" stroke="none" fill="#00D2CD"></polygon></g></g><g transform="translate(42.84245242871997 28.462150438283352)"><g clip-path="url(#i14)"><polygon points="0,0 45.2032632,0 45.2032632,27.4675162 0,27.4675162 0,0" stroke="none" fill="#00D2CD"></polygon></g></g><g transform="translate(26.5752272268823 32.29560457744671)"><g clip-path="url(#i15)"><polygon points="0,5.12393947e-16 16.5372629,5.12393947e-16 16.5372629,23.031301 0,23.031301 0,5.12393947e-16" stroke="none" fill="#00D2CD"></polygon></g></g><g transform="translate(6.840119727683316 29.025377035672655)"><g clip-path="url(#i16)"><polygon points="3.33066907e-16,0 36.2734905,0 36.2734905,26.3004086 3.33066907e-16,26.3004086 3.33066907e-16,0" stroke="none" fill="#00D2CD"></polygon></g></g><g transform="translate(0.0 29.02649699311425)"><g clip-path="url(#i17)"><polygon points="5.55111512e-17,0 20.5396859,0 20.5396859,18.14522 5.55111512e-17,18.14522 5.55111512e-17,0" stroke="none" fill="#00D2CD"></polygon></g></g><g transform="translate(1.4756401961809047 0.0)"><g clip-path="url(#i18)"><polygon points="0,0 84.3124222,0 84.3124222,27.5721203 0,27.5721203 0,0" stroke="none" fill="#00D2CD"></polygon></g></g><g transform="translate(74.3597588840758 28.427991736314034)"><g clip-path="url(#i19)"><polygon points="-2.09554596e-15,0 37.6402411,0 37.6402411,27.5720083 -2.09554596e-15,27.5720083 -2.09554596e-15,0" stroke="none" fill="#00D2CD"></polygon></g></g><g transform="translate(90.99825527517271 5.168323603703049)"><g clip-path="url(#i20)"><polygon points="-1.60982339e-15,0 19.5249934,0 19.5249934,22.4029007 -1.60982339e-15,22.4029007 -1.60982339e-15,0" stroke="none" fill="#00D2CD"></polygon></g></g><g transform="translate(92.06996107070631 0.0010937078791002364)"><g clip-path="url(#i21)"><polygon points="0,0 17.1177458,0 17.1177458,22.2301735 0,22.2301735 0,0" stroke="none" fill="#00D2CD"></polygon></g></g></g></g></svg>