<?xml version="1.0" encoding="UTF-8"?><svg version="1.1" width="14px" height="20px" viewBox="0 0 14.0 20.0" xmlns="http://www.w3.org/2000/svg" xmlns:xlink="http://www.w3.org/1999/xlink"><defs><clipPath id="i0"><path d="M10.92,0 C11.5897867,0.000737199356 12.1325644,0.521117223 12.1333333,1.16326531 L12.1333333,15.122449 C12.132431,15.764544 11.5897314,16.2848492 10.92,16.2857143 L1.21333333,16.2857143 C0.543546596,16.2849771 0.000768929106,15.7645971 0,15.122449 L0,1.16326531 C0.000668825527,0.52107741 0.543505069,0.000641226537 1.21333333,0 Z M10.92,1.16326531 L1.21333333,1.16326531 L1.21333333,15.122449 L10.92,15.122449 L10.92,1.16326531 Z M3.64,13.5714286 L3.64,14.3469388 L2.02222222,14.3469388 L2.02222222,13.5714286 L3.64,13.5714286 Z M6.06666667,5.2021668 C6.93992415,4.42645818 8.25335578,4.47849935 9.06514859,5.32097352 C9.92050602,6.2127849 9.92050602,7.6394926 9.06514859,8.53130398 L6.06770667,11.6323875 L3.06818474,8.53130398 C2.21282731,7.6394926 2.21282731,6.2127849 3.06818474,5.32097352 C3.87997755,4.47849935 5.19340919,4.42645818 6.06666667,5.2021668 Z M3.8088222,6.06721987 C3.35064377,6.54408078 3.35064377,7.30782495 3.8088222,7.78468586 L6.06562666,10.1200848 L8.32451113,7.78473897 C8.78268956,7.30787806 8.78268956,6.54413389 8.32451113,6.06727298 C7.86761158,5.613622 7.14023544,5.613622 6.68333589,6.06727298 L6.06921467,6.70852118 L5.44999745,6.06721987 C4.9930979,5.61356889 4.26572175,5.61356889 3.8088222,6.06721987 Z M10.1111111,1.93877551 L10.1111111,2.71428571 L8.49333333,2.71428571 L8.49333333,1.93877551 L10.1111111,1.93877551 Z"></path></clipPath><clipPath id="i1"><path d="M10.92,0 C11.5897867,0.000737199356 12.1325644,0.521117223 12.1333333,1.16326531 L12.1333333,15.122449 C12.132431,15.764544 11.5897314,16.2848492 10.92,16.2857143 L10.92,1.16326531 L0,1.16326531 C0.000668825527,0.52107741 0.543505069,0.000641226537 1.21333333,0 L10.92,0 Z"></path></clipPath></defs><g transform="translate(-15.0 -150.0)"><g transform="translate(0.0 106.0)"><g transform="translate(12.0 44.0)"><g transform="translate(2.9999999999999982 0.5)"><g transform="translate(8.881784197001252e-16 2.7142857143024006)"><g clip-path="url(#i0)"><polygon points="0,0 12.1333333,0 12.1333333,16.2857143 0,16.2857143 0,0" stroke="none" fill="rgb(255, 218, 2)"></polygon></g></g><g transform="translate(1.866666666666668 0.0)"><g clip-path="url(#i1)"><polygon points="0,0 12.1333333,0 12.1333333,16.2857143 0,16.2857143 0,0" stroke="none" fill="rgb(255, 218, 2)"></polygon></g></g></g></g></g></g></svg>