<?xml version="1.0" encoding="UTF-8"?><svg version="1.1" width="18px" height="18px" viewBox="0 0 18.0 18.0" xmlns="http://www.w3.org/2000/svg" xmlns:xlink="http://www.w3.org/1999/xlink"><defs><clipPath id="i0"><path d="M1600,0 L1600,2259 L0,2259 L0,0 L1600,0 Z"></path></clipPath><clipPath id="i1"><path d="M16.9394324,3.32774053e-05 L17.9999865,1.06058738 L1.06055411,18.0000198 L0,16.9394656 L16.9394324,3.32774053e-05 Z M14.250007,10.5 C16.3210748,10.5 18.000007,12.1789322 18.000007,14.25 C17.9977336,16.3201254 16.3201324,17.9977266 14.250007,18 C12.1789392,18 10.500007,16.3210678 10.500007,14.25 C10.500007,12.1789322 12.1789392,10.5 14.250007,10.5 Z M14.250007,12 C13.0073663,12 12.000007,13.0073593 12.000007,14.25 C12.000007,15.4926407 13.0073663,16.5 14.250007,16.5 C15.4926477,16.5 16.500007,15.4926407 16.500007,14.25 C16.498643,13.0079248 15.4920823,12.001364 14.250007,12 Z M3.75000701,-8.8817842e-16 C5.82107482,-8.8817842e-16 7.50000701,1.67893219 7.50000701,3.75 C7.49773362,5.82012541 5.82013242,7.49772661 3.75000701,7.5 C1.6789392,7.5 7.00712618e-06,5.82106781 7.00712618e-06,3.75 C7.00712618e-06,1.67893219 1.6789392,-8.8817842e-16 3.75000701,-8.8817842e-16 Z M3.75000701,1.5 C2.50736632,1.5 1.50000701,2.50735931 1.50000701,3.75 C1.50000701,4.99264069 2.50736632,6 3.75000701,6 C4.99264769,6 6.00000701,4.99264069 6.00000701,3.75 C5.99864297,2.50792475 4.99208225,1.50136403 3.75000701,1.5 Z"></path></clipPath></defs><g transform="translate(-1082.0 -1469.0)"><g clip-path="url(#i0)"><g transform="translate(376.0 774.0)"><g transform="translate(540.0 446.0)"><g transform="translate(55.0 244.0)"><g transform="translate(108.0 0.0)"><g transform="translate(0.0 2.0)"><g transform="translate(2.999992992873821 3.0000000000000018)"><g clip-path="url(#i1)"><polygon points="0,-8.8817842e-16 18.000007,-8.8817842e-16 18.000007,18.0000198 0,18.0000198 0,-8.8817842e-16" stroke="none" fill="#FFDA00"></polygon></g></g></g></g></g></g></g></g></g></svg>