<?xml version="1.0" encoding="UTF-8"?><svg version="1.1" width="15px" height="19px" viewBox="0 0 15.0 19.0" xmlns="http://www.w3.org/2000/svg" xmlns:xlink="http://www.w3.org/1999/xlink"><defs><clipPath id="i0"><path d="M1600,0 L1600,1080 L0,1080 L0,0 L1600,0 Z"></path></clipPath><clipPath id="i1"><path d="M13.75,0 L13.75,1.875 C13.7456946,5.67017289 10.6701729,8.74569464 6.875,8.75 L6.25,8.75 L6.25,14.41375 C8.10641209,14.5971312 9.78330303,15.6017708 10.82075,17.152125 L9.78225,17.847625 C8.95064721,16.6027772 7.60500206,15.7960566 6.11515706,15.6491854 C4.62531206,15.5023143 3.14804541,16.0307481 2.089375,17.08925 L1.205625,16.2054375 C2.22265064,15.182563 3.56441305,14.5461817 5,14.4058125 L5,8.75 L4.375,8.75 C1.95986795,8.74731334 0.00268665908,6.79013205 0,4.375 L0,2.5 L1.875,2.5 C3.31172557,2.500693 4.65637595,3.20735351 5.4718125,4.39025 C6.49806637,1.74753989 9.0400235,0.00468490832 11.875,0 L13.75,0 Z M1.875,3.75 L1.25,3.75 L1.25,4.375 C1.25196323,6.10007599 2.64992401,7.49803677 4.375,7.5 L5,7.5 L5,6.875 C4.99813988,5.14988123 3.60011877,3.75186012 1.875,3.75 Z M12.5,1.25 L11.875,1.25 C8.76982614,1.25344446 6.25344446,3.76982614 6.25,6.875 L6.25,7.5 L6.875,7.5 C9.98017386,7.49655554 12.4965555,4.98017386 12.5,1.875 L12.5,1.25 Z"></path></clipPath></defs><g transform="translate(-1281.0 -229.0)"><g clip-path="url(#i0)"><g transform="translate(1254.0 88.0)"><g transform="translate(0.0 32.0)"><g transform="translate(24.0 108.0)"><g transform="translate(3.75 1.2500000000000018)"><g clip-path="url(#i1)"><polygon points="0,0 13.75,0 13.75,17.847625 0,17.847625 0,0" stroke="none" fill="#8698A2"></polygon></g></g></g></g></g></g></g></svg>