<?xml version="1.0" encoding="UTF-8"?><svg version="1.1" width="18px" height="18px" viewBox="0 0 18.0 18.0" xmlns="http://www.w3.org/2000/svg" xmlns:xlink="http://www.w3.org/1999/xlink"><defs><clipPath id="i0"><path d="M2.01689089,2.01689089 C4.62006011,-0.586278338 8.81031578,-0.681498177 11.5290463,1.8007356 C14.2477768,4.28296938 14.5332397,8.46457438 12.1770659,11.2932534 L16.8971284,16.0133159 L16.0133159,16.8971284 L11.2932534,12.1770659 C8.46457438,14.5332397 4.28296938,14.2477768 1.8007356,11.5290463 C-0.681498177,8.81031578 -0.586278338,4.62006011 2.01689089,2.01689089 Z M6.89712838,1.27212838 C3.79052667,1.27212838 1.27212838,3.79052667 1.27212838,6.89712838 C1.27557284,10.0023022 3.79195453,12.5186839 6.89712838,12.5221284 C10.0037301,12.5221284 12.5221284,10.0037301 12.5221284,6.89712838 C12.5221284,3.79052667 10.0037301,1.27212838 6.89712838,1.27212838 Z"></path></clipPath></defs><g transform="translate(-687.0 -41.0)"><g transform="translate(670.0 26.0)"><g transform="translate(16.0 14.0)"><g transform="translate(1.22787161580694 1.22787161580694)"><g clip-path="url(#i0)"><polygon points="0,-2.22044605e-16 16.8971284,-2.22044605e-16 16.8971284,16.8971284 0,16.8971284 0,-2.22044605e-16" stroke="none" fill="#8698A2"></polygon></g></g></g></g></g></svg>