<?xml version="1.0" encoding="UTF-8"?><svg version="1.1" width="18px" height="16px" viewBox="0 0 18.0 16.0" xmlns="http://www.w3.org/2000/svg" xmlns:xlink="http://www.w3.org/1999/xlink"><defs><clipPath id="i0"><path d="M1600,0 L1600,1080 L0,1080 L0,0 L1600,0 Z"></path></clipPath><clipPath id="i1"><path d="M5.625,8.75 C7.125,8.75 8.375,9.8125 8.6875,11.25 L17.5,11.25 L17.5,12.5 L8.6875,12.5 C8.375,13.9375 7.125,15 5.625,15 C4.125,15 2.875,13.9375 2.5625,12.5 L0,12.5 L0,11.25 L2.5625,11.25 C2.875,9.8125 4.125,8.75 5.625,8.75 Z M5.625,10 C4.5625,10 3.75,10.8125 3.75,11.875 C3.75,12.9375 4.5625,13.75 5.625,13.75 C6.6875,13.75 7.5,12.9375 7.5,11.875 C7.5,10.8125 6.6875,10 5.625,10 Z M11.875,0 C13.375,0 14.625,1.0625 14.9375,2.5 L17.5,2.5 L17.5,3.75 L14.9375,3.75 C14.625,5.1875 13.375,6.25 11.875,6.25 C10.375,6.25 9.125,5.1875 8.8125,3.75 L0,3.75 L0,2.5 L8.8125,2.5 C9.125,1.0625 10.375,0 11.875,0 Z M11.875,1.25 C10.8125,1.25 10,2.0625 10,3.125 C10,4.1875 10.8125,5 11.875,5 C12.9375,5 13.75,4.1875 13.75,3.125 C13.75,2.0625 12.9375,1.25 11.875,1.25 Z"></path></clipPath></defs><g transform="translate(-1279.0 -338.0)"><g clip-path="url(#i0)"><g transform="translate(1254.0 88.0)"><g transform="translate(0.0 32.0)"><g transform="translate(24.0 216.0)"><g transform="translate(1.25 2.5)"><g clip-path="url(#i1)"><polygon points="0,0 17.5,0 17.5,15 0,15 0,0" stroke="none" fill="#31CDC9"></polygon></g></g></g></g></g></g></g></svg>