<?xml version="1.0" encoding="UTF-8"?><svg version="1.1" width="20px" height="20px" viewBox="0 0 20.0 20.0" xmlns="http://www.w3.org/2000/svg" xmlns:xlink="http://www.w3.org/1999/xlink"><defs><clipPath id="i0"><path d="M9.2,0 L12.04375,5.7625 L18.4,6.6875 L13.8,11.16875 L14.8875,17.5 L9.2,14.5125 L3.5125,17.5 L4.6,11.16875 L0,6.68125 L6.35625,5.7625 L9.2,0 Z M9.2,2.825 L7.45,6.28125 L7.1625,6.90625 L6.5375,7 L2.6875,7.55625 L5.45,10.275 L5.9125,10.75625 L5.8,11.38125 L5.175,15.2125 L8.61875,13.43125 L9.2,13.125 L9.80625,13.38125 L13.25,15.1875 L12.59375,11.35625 L12.48125,10.73125 L12.95,10.275 L15.6875,7.5875 L11.8375,7.03125 L11.2125,6.9375 L10.925,6.3125 L9.2,2.825 Z"></path></clipPath></defs><g transform="translate(0.7999999999999989 0.5)"><g clip-path="url(#i0)"><polygon points="0,0 18.4,0 18.4,17.5 0,17.5 0,0" stroke="none" fill="rgb(255, 218, 2)"></polygon></g></g></svg>