<?xml version="1.0" encoding="UTF-8"?><svg version="1.1" width="19px" height="19px" viewBox="0 0 19.0 19.0" xmlns="http://www.w3.org/2000/svg" xmlns:xlink="http://www.w3.org/1999/xlink"><defs><clipPath id="i0"><path d="M1600,0 L1600,916 L0,916 L0,0 L1600,0 Z"></path></clipPath><clipPath id="i1"><path d="M1424.61669,116 C1429.9658,116 1431.90552,116.556954 1433.86107,117.602796 C1435.81663,118.648639 1437.35136,120.18337 1438.3972,122.138926 C1439.44305,124.094481 1440,126.034199 1440,131.383311 L1440,560.616689 C1440,565.965801 1439.44305,567.905519 1438.3972,569.861074 C1437.35136,571.81663 1435.81663,573.351361 1433.86107,574.397204 C1431.90552,575.443046 1429.9658,576 1424.61669,576 L391.383311,576 C386.034199,576 384.094481,575.443046 382.138926,574.397204 C380.18337,573.351361 378.648639,571.81663 377.602796,569.861074 C376.556954,567.905519 376,565.965801 376,560.616689 L376,131.383311 C376,126.034199 376.556954,124.094481 377.602796,122.138926 C378.648639,120.18337 380.18337,118.648639 382.138926,117.602796 C384.094481,116.556954 386.034199,116 391.383311,116 L1424.61669,116 Z"></path></clipPath><clipPath id="i2"><path d="M18.006,0 L18.006,11.535 L13.083,16.459 L9.425,16.459 L7.033,18.85 L4.502,18 L4.502,16.459 L0,16.459 L0,3.236 L1.265,0 L18.006,0 Z M16.317,1.688 L2.813,1.688 L2.813,13.505 L6.611,13.505 L6.611,15.896 L9.002,13.505 L13.504,13.505 L16.317,10.691 L16.317,1.688 Z M13.505,4.924 L13.505,9.847 L11.817,9.847 L11.817,4.924 L13.505,4.924 Z M9.003,4.924 L9.003,9.847 L7.315,9.847 L7.315,4.924 L9.003,4.924 Z"></path></clipPath></defs><g transform="translate(-708.0 -480.0)"><g clip-path="url(#i0)"><g clip-path="url(#i1)"><g transform="translate(592.0 414.0)"><g transform="translate(0.0 52.0)"><g transform="translate(116.0 13.0)"><g transform="translate(0.0 1.0)"><g clip-path="url(#i2)"><polygon points="0,0 18.006,0 18.006,18.85 0,18.85 0,0" stroke="none" fill="#30CDC9"></polygon></g></g></g></g></g></g></g></g></svg>