<?xml version="1.0" encoding="UTF-8"?><svg version="1.1" width="20px" height="20px" viewBox="0 0 20.0 20.0" xmlns="http://www.w3.org/2000/svg" xmlns:xlink="http://www.w3.org/1999/xlink"><defs><clipPath id="i0"><path d="M10.625,1.22586997e-05 C12.925572,-0.00103910925 14.9946929,1.39955578 15.8484959,3.53582658 C16.702299,5.67209738 16.168508,8.1129977 14.5009405,9.69787977 C12.8333729,11.2827618 10.3685026,11.6918358 8.278375,10.7305871 L5.8838125,13.1250246 L5,12.2412121 L7.1795625,10.0616496 C6.80930694,9.77367486 6.47634973,9.44071765 6.188375,9.07046209 L0.8838125,14.3750246 L0,13.4912121 L5.5195625,7.97183709 C4.713836,6.23175115 4.85213561,4.20075522 5.88631123,2.58595646 C6.92048685,0.971157692 8.7074291,-0.00398777735 10.625,1.22586997e-05 Z M10.0430625,1.29333709 C8.09196225,1.5577431 6.55746851,3.09223685 6.2930625,5.04333709 C8.86646242,5.35507873 10.8946066,7.38330028 11.20625,9.95671209 C13.1573502,9.69230609 14.691844,8.15781234 14.95625,6.20671209 C12.3828501,5.89497045 10.3547059,3.86674891 10.0430625,1.29333709 Z M6.308875,6.30889959 C6.60751498,8.17734273 8.07268186,9.64250961 9.941125,9.94114959 C9.64248502,8.07270646 8.17731814,6.60753957 6.308875,6.30889959 Z M11.308875,1.30889959 C11.607515,3.17734273 13.0726819,4.64250961 14.941125,4.94114959 C14.642485,3.07270646 13.1773181,1.60753957 11.308875,1.30889959 Z"></path></clipPath></defs><g transform="translate(1.25 2.4999754070299316)"><g clip-path="url(#i0)"><polygon points="0,1.91697108e-16 16.2502343,1.91697108e-16 16.2502343,14.3750246 0,14.3750246 0,1.91697108e-16" stroke="none" fill="#8698A2"></polygon></g></g></svg>