<?xml version="1.0" encoding="UTF-8"?><svg version="1.1" width="20px" height="20px" viewBox="0 0 20.0 20.0" xmlns="http://www.w3.org/2000/svg" xmlns:xlink="http://www.w3.org/1999/xlink"><defs><clipPath id="i0"><path d="M16.25,1.875 L16.25,3.125 L2.5,3.125 L2.5,5 L17.5,5 C18.1903559,5 18.75,5.55964406 18.75,6.25 L18.75,16.25 C18.75,16.9403559 18.1903559,17.5 17.5,17.5 L2.5,17.5 C1.80964406,17.5 1.25,16.9403559 1.25,16.25 L1.25,3.125 C1.25,2.43464406 1.80964406,1.875 2.5,1.875 L16.25,1.875 Z M17.5,6.25 L2.5,6.25 L2.5,16.25 L17.5,16.25 L17.5,14.375 L12.5,14.375 C11.8096441,14.375 11.25,13.8153559 11.25,13.125 L11.25,9.375 C11.25,8.68464406 11.8096441,8.125 12.5,8.125 L17.5,8.125 L17.5,6.25 Z M17.5,9.375 L12.5,9.375 L12.5,13.125 L17.5,13.125 L17.5,9.375 Z M15,10.625 L15,11.875 L13.75,11.875 L13.75,10.625 L15,10.625 Z"></path></clipPath></defs><g clip-path="url(#i0)"><polygon points="1.25,1.875 18.75,1.875 18.75,17.5 1.25,17.5 1.25,1.875" stroke="none" fill="#8698A2"></polygon></g></svg>