<?xml version="1.0" encoding="UTF-8"?><svg version="1.1" width="16px" height="18px" viewBox="0 0 16.0 18.0" xmlns="http://www.w3.org/2000/svg" xmlns:xlink="http://www.w3.org/1999/xlink"><defs><clipPath id="i0"><path d="M1600,0 L1600,1080 L0,1080 L0,0 L1600,0 Z"></path></clipPath><clipPath id="i1"><path d="M7.5,1.06729544 C8.4346045,-0.117166727 10.1388726,-0.349803905 11.3567347,0.540840771 C12.5745969,1.43148545 12.8694298,3.12610143 12.0239375,4.37573294 L13.75,4.37573294 C14.439999,4.37659382 14.9991391,4.93573391 15,5.62573294 L15,8.12573294 C14.9991391,8.81573197 14.439999,9.37487205 13.75,9.37573294 L13.75,15.6257329 C13.7491391,16.315732 13.189999,16.8748721 12.5,16.8757329 L2.5,16.8757329 C1.81000097,16.8748721 1.25086089,16.315732 1.25,15.6257329 L1.25,9.37573294 C0.560000968,9.37487205 0.000860885636,8.81573197 0,8.12573294 L0,5.62573294 C0.000860885636,4.93573391 0.560000968,4.37659382 1.25,4.37573294 L2.9760625,4.37573294 C2.13693151,3.12613911 2.43385254,1.43696297 3.64881949,0.548435611 C4.86378645,-0.340091745 6.56350342,-0.111093169 7.5,1.06729544 Z M6.875,9.37573294 L2.5,9.37573294 L2.5,15.6257329 L6.875,15.6257329 L6.875,9.37573294 Z M12.5,9.37573294 L8.125,9.37573294 L8.125,15.6257329 L12.50075,15.6257329 L12.5,9.37573294 Z M6.875,5.62573294 L1.25,5.62573294 L1.25,8.12573294 L6.875,8.12573294 L6.875,5.62573294 Z M13.75,5.62573294 L8.125,5.62573294 L8.125,8.12573294 L13.75075,8.12573294 L13.75,5.62573294 Z M9.6875,1.25073294 C8.82455508,1.25073294 8.125,1.95028802 8.125,2.81323294 L8.125,4.37573294 L9.6875,4.37573294 C10.5504449,4.37573294 11.25,3.67617786 11.25,2.81323294 C11.25,1.95028802 10.5504449,1.25073294 9.6875,1.25073294 Z M5.3125,1.25073294 C4.44955508,1.25073294 3.75,1.95028802 3.75,2.81323294 C3.75,3.67617786 4.44955508,4.37573294 5.3125,4.37573294 L6.875,4.37573294 L6.875,2.81323294 C6.87396684,1.95071633 6.17501661,1.2517661 5.3125,1.25073294 Z"></path></clipPath></defs><g transform="translate(-1280.0 -157.0)"><g clip-path="url(#i0)"><g transform="translate(1254.0 88.0)"><g transform="translate(0.0 32.0)"><g transform="translate(24.0 36.0)"><g transform="translate(2.5 1.8742670623244422)"><g clip-path="url(#i1)"><polygon points="0,0 15,0 15,16.8757329 0,16.8757329 0,0" stroke="none" fill="#30CDC9"></polygon></g></g></g></g></g></g></g></svg>