<?xml version="1.0" encoding="UTF-8"?><svg version="1.1" width="28px" height="28px" viewBox="0 0 28.0 28.0" xmlns="http://www.w3.org/2000/svg" xmlns:xlink="http://www.w3.org/1999/xlink"><defs><clipPath id="i0"><path d="M1600,0 L1600,1080 L0,1080 L0,0 L1600,0 Z"></path></clipPath><clipPath id="i1"><path d="M14,0 C17.7130309,0 21.2739856,1.47499577 23.8994949,4.10050506 C26.5250042,6.72601436 28,10.2869691 28,14 C28,21.7319865 21.7319865,28 14,28 C6.2680135,28 0,21.7319865 0,14 C0,6.2680135 6.2680135,0 14,0 Z M19.41,9 L12,16.4092 L8.5906,13 L7,14.5908 L12,19.5908 L21.0057,10.5859 L19.41,9 Z"></path></clipPath><clipPath id="i2"><path d="M12.41,0 L14.005,1.585 L5,10.591 L0,5.591 L1.591,4 L5,7.409 L12.41,0 Z"></path></clipPath></defs><g transform="translate(-50.0 -978.0)"><g clip-path="url(#i0)"><g transform="translate(24.0 952.0)"><g transform="translate(24.0 24.0)"><g transform="translate(2.0 2.0)"><g clip-path="url(#i1)"><polygon points="0,0 28,0 28,28 0,28 0,0" stroke="none" fill="#00FF66"></polygon></g></g><g transform="translate(8.999999999999996 11.0)"><g clip-path="url(#i2)"><polygon points="0,0 14.005,0 14.005,10.591 0,10.591 0,0" stroke="none" fill="#19212A"></polygon></g></g></g></g></g></g></svg>