<?xml version="1.0" encoding="UTF-8"?><svg version="1.1" width="18px" height="18px" viewBox="0 0 18.0 18.0" xmlns="http://www.w3.org/2000/svg" xmlns:xlink="http://www.w3.org/1999/xlink"><defs><clipPath id="i0"><path d="M16.5785471,11.9502962 L17.1711721,13.0507337 L9.04617209,17.4257337 C8.95512286,17.4748015 8.85328879,17.5004265 8.74985959,17.5002967 C8.64639292,17.5002967 8.54455665,17.4745162 8.45354709,17.4252962 L0.328547091,13.0502962 L0.921172091,11.9502962 L8.74985959,16.1654837 L16.5785471,11.9502962 Z M16.5785471,8.20029618 L17.1711721,9.30073368 L9.04617209,13.6757337 C8.95512286,13.7248015 8.85328879,13.7504265 8.74985959,13.7502967 C8.64639292,13.7502967 8.54455665,13.7245162 8.45354709,13.6752962 L0.328547091,9.30029618 L0.921172091,8.20029618 L8.74985959,12.4154837 L16.5785471,8.20029618 Z M9.04617209,0.0748586815 L17.1711721,4.44985868 C17.3735375,4.55889135 17.4997192,4.77020815 17.4997192,5.00007743 C17.4997192,5.22994671 17.3735375,5.44126352 17.1711721,5.55029618 L9.04617209,9.92529618 C8.95516253,9.97451621 8.85332626,10.0002962 8.74985959,10.0002962 C8.64639292,10.0002962 8.54455665,9.97451621 8.45354709,9.92529618 L0.328547091,5.55029618 C0.126181672,5.44126352 0,5.22994671 0,5.00007743 C0,4.77020815 0.126181672,4.55889135 0.328547091,4.44985868 L8.45354709,0.0748586815 C8.63848085,-0.0249528938 8.86123833,-0.0249528938 9.04617209,0.0748586815 Z M8.74985959,1.33517118 L1.94323459,5.00029618 L8.74985959,8.66548368 L15.5564846,5.00029618 L8.74985959,1.33517118 Z"></path></clipPath></defs><g transform="translate(-1.0 -323.0)"><g transform="translate(0.0 246.0)"><g transform="translate(0.0 76.0)"><g transform="translate(1.250140408821009 1.2497038184903975)"><g clip-path="url(#i0)"><polygon points="0,0 17.4997192,0 17.4997192,17.5002972 0,17.5002972 0,0" stroke="none" fill="#31CDC9"></polygon></g></g></g></g></g></svg>