<?xml version="1.0" encoding="UTF-8"?><svg version="1.1" width="20px" height="20px" viewBox="0 0 20.0 20.0" xmlns="http://www.w3.org/2000/svg" xmlns:xlink="http://www.w3.org/1999/xlink"><defs><clipPath id="i0"><path d="M11.25,0 C11.9400275,0.000792165975 12.4992078,0.559972455 12.5,1.25 L12.5,1.875 L13.75,1.875 C14.4400275,1.87579217 14.9992078,2.43497245 15,3.125 L15,5 C14.99845,6.38006935 13.8800693,7.49845004 12.5,7.5 L12.3375,7.5 C11.829663,9.48460041 10.1580659,10.955581 8.125,11.2069375 L8.125,13.75 L11.25,13.75 L11.25,15 L3.75,15 L3.75,13.75 L6.875,13.75 L6.875,11.2088125 C4.87110544,10.9101761 3.2333877,9.45489298 2.70125,7.5 L2.5,7.5 C1.11993065,7.49845004 0.00154996392,6.38006935 0,5 L0,3.125 C0.000792165975,2.43497245 0.559972455,1.87579217 1.25,1.875 L2.5,1.875 L2.5,1.25 C2.50079217,0.559972455 3.05997245,0.000792165975 3.75,0 Z M11.25,1.25 L3.75,1.25 L3.75,6.0665625 C3.71544949,8.13789796 5.31641181,9.86994949 7.3840625,9.9981875 C8.39824205,10.0295575 9.38184673,9.64861178 10.1103314,8.94231556 C10.838816,8.23601933 11.25,7.2646646 11.25,6.25 L11.25,1.25 Z M2.5,3.125 L1.25,3.125 L1.25,5 C1.25079217,5.69002755 1.80997245,6.24920783 2.5,6.25 L2.5,3.125 Z M13.75,3.125 L12.5,3.125 L12.5,6.25 C13.1900275,6.24920783 13.7492078,5.69002755 13.75,5 L13.75,3.125 Z"></path></clipPath></defs><g transform="translate(2.5 2.5)"><g clip-path="url(#i0)"><polygon points="0,0 15,0 15,15 0,15 0,0" stroke="none" fill="#31CDC9"></polygon></g></g></svg>