<?xml version="1.0" encoding="UTF-8"?><svg version="1.1" width="18px" height="18px" viewBox="0 0 18.0 18.0" xmlns="http://www.w3.org/2000/svg" xmlns:xlink="http://www.w3.org/1999/xlink"><defs><clipPath id="i0"><path d="M1600,0 L1600,1080 L0,1080 L0,0 L1600,0 Z"></path></clipPath><clipPath id="i1"><path d="M17.0025,0 C17.5517037,0.0040834679 17.9959165,0.448296282 18,0.9975 L18,17.0025 C17.9959165,17.5517037 17.5517037,17.9959165 17.0025,18 L12.4275,18 L12.4275,11.0325 L14.775,11.0325 L15.1275,8.31 L12.4275,8.31 L12.4275,6.5775 C12.4275,5.79 12.645,5.25 13.7775,5.25 L15.21,5.25 L15.21,2.8275 C14.5125,2.7225 13.815,2.7225 13.1175,2.7225 C11.0325,2.7225 9.615,3.99 9.615,6.315 L9.615,8.3175 L7.275,8.3175 L7.275,11.04 L9.615,11.04 L9.615,18 L0.9975,18 C0.448296282,17.9959165 0.0040834679,17.5517037 0,17.0025 L0,0.9975 C0.0040834679,0.448296282 0.448296282,0.0040834679 0.9975,0 Z"></path></clipPath></defs><g transform="translate(-56.0 -225.0)"><g clip-path="url(#i0)"><g transform="translate(24.0 211.0)"><g transform="translate(29.0 11.0)"><g transform="translate(3.0 3.0)"><g clip-path="url(#i1)"><polygon points="0,0 18,0 18,18 0,18 0,0" stroke="none" fill="#FFFFFF"></polygon></g></g></g></g></g></g></svg>