<?xml version="1.0" encoding="UTF-8"?>
<svg width="28px" height="28px" viewBox="0 0 28 28" version="1.1" xmlns="http://www.w3.org/2000/svg" xmlns:xlink="http://www.w3.org/1999/xlink">
    <title>Actions / Navigation / menu / 24 Copy@2x</title>
    <g id="Symbols" stroke="none" stroke-width="1" fill="none" fill-rule="evenodd">
        <g id="Mobile-/-Header---Sign-in" transform="translate(-321.000000, -18.000000)">
            <g id="Actions-/-Navigation-/-menu-/-24-Copy" transform="translate(320.999992, 17.999163)">
                <path d="M24.7489079,22.9308366 C28.6944735,18.1824427 29.0608654,11.4090644 25.6505325,6.26276834 C22.2401996,1.11647233 15.8595737,-1.18581138 9.94895746,0.597261394 C4.03834121,2.38033417 -0.00459877634,7.82712529 3.92590624e-06,14.0008366 C0.000791053284,17.2670362 1.15181661,20.4286302 3.25110786,22.9308366 L3.23110786,22.9474366 C3.30110786,23.0319366 3.38110786,23.1041366 3.45330786,23.1866366 C3.54330786,23.2902366 3.63970786,23.3866366 3.73330786,23.4874366 C4.01330786,23.7907366 4.30070786,24.0826366 4.60330786,24.3574366 C4.69480786,24.4405366 4.78970786,24.5186366 4.88330786,24.5991366 C5.20330786,24.8750366 5.53170786,25.1363366 5.87330786,25.3804366 C5.91740786,25.4116366 5.95650786,25.4497366 6.00090786,25.4810366 L6.00090786,25.4683366 C10.7996949,28.8452663 17.2021208,28.8452663 22.0009079,25.4683366 L22.0009079,25.4808366 C22.0453079,25.4495366 22.0844079,25.4114366 22.1285079,25.3802366 C22.4697079,25.1361366 22.7985079,24.8748366 23.1185079,24.5989366 C23.2121079,24.5189366 23.3070079,24.4403366 23.3985079,24.3572366 C23.7010079,24.0823366 23.9885079,23.7904366 24.2685079,23.4872366 C24.3618079,23.3866366 24.4579079,23.2900366 24.5485079,23.1864366 C24.6204079,23.1039366 24.7007079,23.0317366 24.7707079,22.9472366 L24.7489079,22.9308366 Z M14.0000079,6.00083663 C16.4852892,6.00083663 18.5000079,8.01555525 18.5000079,10.5008366 C18.5000079,12.986118 16.4852892,15.0008366 14.0000079,15.0008366 C11.5147265,15.0008366 9.50000786,12.986118 9.50000786,10.5008366 C9.50000786,8.01555525 11.5147265,6.00083663 14.0000079,6.00083663 Z M6.00710786,22.9308366 C6.04304355,20.1985694 8.2675046,18.0021318 11.0000079,18.0008366 L17.0000079,18.0008366 C19.732489,18.0021858 21.9569185,20.1985922 21.9929079,22.9308366 C17.4504067,27.0241512 10.5496091,27.0241512 6.00710786,22.9308366 L6.00710786,22.9308366 Z" id="Fill" fill="#8698A2"></path>
                <path d="M6.00710786,22.9308366 C6.04309721,20.1985922 8.26752676,18.0021858 11.0000079,18.0008366 L17.0000079,18.0008366 C19.7324668,18.0022397 21.9568648,20.1986151 21.9929079,22.9308366 C17.4504067,27.0241512 10.5496091,27.0241512 6.00710786,22.9308366 L6.00710786,22.9308366 Z M18.5000079,10.5008366 C18.5000079,12.986118 16.4852892,15.0008366 14.0000079,15.0008366 C11.5147265,15.0008366 9.50000786,12.986118 9.50000786,10.5008366 C9.50000786,8.01555525 11.5147265,6.00083663 14.0000079,6.00083663 C16.4852892,6.00083663 18.5000079,8.01555525 18.5000079,10.5008366 Z" id="_inner-path_"></path>
            </g>
        </g>
    </g>
</svg>