<?xml version="1.0" encoding="UTF-8"?><svg version="1.1" width="18px" height="15px" viewBox="0 0 18.0 15.0" xmlns="http://www.w3.org/2000/svg" xmlns:xlink="http://www.w3.org/1999/xlink"><defs><clipPath id="i0"><path d="M17.5,12.5 L17.5,13.75 L0,13.75 L0,12.5 L17.5,12.5 Z M15,0 C15.6900275,0.000792165975 16.2492078,0.559972455 16.25,1.25 L16.25,10 C16.2490704,10.6899705 15.6899705,11.2490704 15,11.25 L2.5,11.25 C1.80997245,11.2492078 1.25079217,10.6900275 1.25,10 L1.25,1.25 C1.25068904,0.559929673 1.80992967,0.000689037287 2.5,0 L15,0 Z M15,1.25 L2.5,1.25 L2.5,10 L15,10 L15,1.25 Z"></path></clipPath></defs><g transform="translate(-1.0 -53.0)"><g transform="translate(0.0 6.0)"><g transform="translate(0.0 44.0)"><g transform="translate(1.25 3.7530624999999995)"><g clip-path="url(#i0)"><polygon points="0,0 17.5,0 17.5,13.75 0,13.75 0,0" stroke="none" fill="#8698A2"></polygon></g></g></g></g></g></svg>