<?xml version="1.0" encoding="UTF-8"?><svg version="1.1" width="18px" height="18px" viewBox="0 0 18.0 18.0" xmlns="http://www.w3.org/2000/svg" xmlns:xlink="http://www.w3.org/1999/xlink"><defs><clipPath id="i0"><path d="M11.25,0 C11.9403559,0 12.5,0.559644063 12.5,1.25 L12.5,6.25 L16.25,6.25 C16.9403559,6.25 17.5,6.80964406 17.5,7.5 L17.5,17.5 L0,17.5 L0,1.25 C0,0.559644063 0.559644063,0 1.25,0 Z M11.25,1.25 L1.25,1.25 L1.25,16.25 L11.25,16.25 L11.25,1.25 Z M16.25,7.5 L12.5,7.5 L12.5,16.25 L16.25,16.25 L16.25,7.5 Z M5,11.25 L5,13.75 L3.75,13.75 L3.75,11.25 L5,11.25 Z M8.75,11.25 L8.75,13.75 L7.5,13.75 L7.5,11.25 L8.75,11.25 Z M5,7.5 L5,10 L3.75,10 L3.75,7.5 L5,7.5 Z M8.75,7.5 L8.75,10 L7.5,10 L7.5,7.5 L8.75,7.5 Z M5,3.75 L5,6.25 L3.75,6.25 L3.75,3.75 L5,3.75 Z M8.75,3.75 L8.75,6.25 L7.5,6.25 L7.5,3.75 L8.75,3.75 Z"></path></clipPath></defs><g transform="translate(-1.0 -195.0)"><g transform="translate(0.0 150.0)"><g transform="translate(0.0 44.0)"><g transform="translate(1.25 1.25)"><g clip-path="url(#i0)"><polygon points="0,0 17.5,0 17.5,17.5 0,17.5 0,0" stroke="none" fill="#31CDC9"></polygon></g></g></g></g></g></svg>