<?xml version="1.0" encoding="UTF-8"?><svg version="1.1" width="22px" height="18px" viewBox="0 0 22.0 18.0" xmlns="http://www.w3.org/2000/svg" xmlns:xlink="http://www.w3.org/1999/xlink"><defs><clipPath id="i0"><path d="M1600,0 L1600,2259 L0,2259 L0,0 L1600,0 Z"></path></clipPath><clipPath id="i1"><path d="M18.758104,0.00102797363 C19.0942183,-0.0165156271 19.4008586,0.19199977 19.508104,0.511027974 L21.008104,5.01102797 C21.0189094,5.09066311 21.0189094,5.17139284 21.008104,5.25102797 L21.008104,9.75102797 C21.008104,10.1652415 20.6723176,10.501028 20.258104,10.501028 L19.508104,10.501028 L19.508104,18.001028 L7.50810402,18.001028 L7.50810402,10.501028 L3.00810402,10.501028 L3.00810402,18.001028 L1.50810402,18.001028 L1.50810402,10.501028 L0.75810402,10.501028 C0.343890457,10.501028 0.00810401968,10.1652415 0.00810401968,9.75102797 L0.00810401968,5.25102797 C-0.00270133989,5.17139284 -0.00270133989,5.09066311 0.00810401968,5.01102797 L1.50810402,0.511027974 C1.61534946,0.19199977 1.92198975,-0.0165156271 2.25810402,0.00102797363 Z M18.008104,10.501028 L9.00810402,10.501028 L9.00810402,16.501028 L18.008104,16.501028 L18.008104,10.501028 Z M18.218104,1.50102797 L2.79810402,1.50102797 L1.50810402,5.37102797 L1.50810402,9.00102797 L4.50810402,9.00102797 L4.50810402,6.00102797 L6.00810402,6.00102797 L6.00810402,9.00102797 L9.75810402,9.00102797 L9.75810402,6.00102797 L11.258104,6.00102797 L11.258104,9.00102797 L15.008104,9.00102797 L15.008104,6.00102797 L16.508104,6.00102797 L16.508104,9.00102797 L19.508104,9.00102797 L19.508104,5.37102797 L18.218104,1.50102797 Z"></path></clipPath></defs><g transform="translate(-556.0 -1469.0)"><g clip-path="url(#i0)"><g transform="translate(376.0 774.0)"><g transform="translate(0.0 446.0)"><g transform="translate(55.0 244.0)"><g transform="translate(124.0 0.0)"><g transform="translate(0.0 2.0)"><g transform="translate(1.4918959803165084 2.998972026367948)"><g clip-path="url(#i1)"><polygon points="0,0 21.016208,0 21.016208,18.001028 0,18.001028 0,0" stroke="none" fill="#FFDA00"></polygon></g></g></g></g></g></g></g></g></g></svg>