<?xml version="1.0" encoding="UTF-8"?><svg version="1.1" width="18px" height="17px" viewBox="0 0 18.0 17.0" xmlns="http://www.w3.org/2000/svg" xmlns:xlink="http://www.w3.org/1999/xlink"><defs><clipPath id="i0"><path d="M15,0 L15,1.25 L1.25,1.25 L1.25,3.125 L16.25,3.125 C16.9403559,3.125 17.5,3.68464406 17.5,4.375 L17.5,14.375 C17.5,15.0653559 16.9403559,15.625 16.25,15.625 L1.25,15.625 C0.559644063,15.625 0,15.0653559 0,14.375 L0,1.25 C0,0.559644063 0.559644063,0 1.25,0 L15,0 Z M16.25,4.375 L1.25,4.375 L1.25,14.375 L16.25,14.375 L16.25,12.5 L11.25,12.5 C10.5596441,12.5 10,11.9403559 10,11.25 L10,7.5 C10,6.80964406 10.5596441,6.25 11.25,6.25 L16.25,6.25 L16.25,4.375 Z M16.25,7.5 L11.25,7.5 L11.25,11.25 L16.25,11.25 L16.25,7.5 Z M13.75,8.75 L13.75,10 L12.5,10 L12.5,8.75 L13.75,8.75 Z"></path></clipPath></defs><g transform="translate(-1.0 -83.0)"><g transform="translate(0.0 6.0)"><g transform="translate(0.0 76.0)"><g transform="translate(1.25 1.875)"><g clip-path="url(#i0)"><polygon points="0,0 17.5,0 17.5,15.625 0,15.625 0,0" stroke="none" fill="#31CDC9"></polygon></g></g></g></g></g></svg>