<?xml version="1.0" encoding="UTF-8"?><svg version="1.1" width="16px" height="16px" viewBox="0 0 16.0 16.0" xmlns="http://www.w3.org/2000/svg" xmlns:xlink="http://www.w3.org/1999/xlink"><defs><clipPath id="i0"><path d="M14.1161936,2.77311711e-05 L14.9999887,0.883822819 L0.883795088,15.0000165 L9.43689571e-16,14.1162214 L14.1161936,2.77311711e-05 Z M11.8750058,8.75 C13.6008957,8.75 15.0000058,10.1491102 15.0000058,11.875 C14.9981113,13.6001045 13.6001103,14.9981055 11.8750058,15 C10.149116,15 8.75000584,13.6008898 8.75000584,11.875 C8.75000584,10.1491102 10.149116,8.75 11.8750058,8.75 Z M11.8750058,10 C10.8394719,10 10.0000058,10.8394661 10.0000058,11.875 C10.0000058,12.9105339 10.8394719,13.75 11.8750058,13.75 C12.9105397,13.75 13.7500058,12.9105339 13.7500058,11.875 C13.7488691,10.8399373 12.9100685,10.0011367 11.8750058,10 Z M3.12500584,4.4408921e-16 C4.85089568,4.4408921e-16 6.25000584,1.39911016 6.25000584,3.125 C6.24811135,4.85010451 4.85011035,6.24810551 3.12500584,6.25 C1.399116,6.25 5.83927181e-06,4.85088984 5.83927181e-06,3.125 C5.83927181e-06,1.39911016 1.399116,4.4408921e-16 3.12500584,4.4408921e-16 Z M3.12500584,1.25 C2.08947193,1.25 1.25000584,2.08946609 1.25000584,3.125 C1.25000584,4.16053391 2.08947193,5 3.12500584,5 C4.16053975,5 5.00000584,4.16053391 5.00000584,3.125 C4.99886914,2.08993729 4.16006855,1.25113669 3.12500584,1.25 Z"></path></clipPath></defs><g transform="translate(-2.0 -148.0)"><g transform="translate(0.0 6.0)"><g transform="translate(0.0 140.0)"><g transform="translate(2.4999941607281873 2.500000000000001)"><g clip-path="url(#i0)"><polygon points="9.43689571e-16,4.4408921e-16 15.0000058,4.4408921e-16 15.0000058,15.0000165 9.43689571e-16,15.0000165 9.43689571e-16,4.4408921e-16" stroke="none" fill="#31CDC9"></polygon></g></g></g></g></g></svg>