<?xml version="1.0" encoding="UTF-8"?><svg version="1.1" width="16px" height="16px" viewBox="0 0 16.0 16.0" xmlns="http://www.w3.org/2000/svg" xmlns:xlink="http://www.w3.org/1999/xlink"><defs><clipPath id="i0"><path d="M10.6247918,0 L14.9997918,4.375 L10.6247918,8.75 L9.74116679,7.8661875 L12.6074168,5 L7.44354179,5 C7.17549614,6.57049229 5.94528408,7.80070435 4.37479179,8.06875 L4.37479179,15 L3.12479179,15 L3.12479179,8.06875 C1.24265938,7.7514172 -0.100331946,6.07027598 0.00588422297,4.16453712 C0.112100392,2.25879825 1.63359004,0.737308602 3.53932891,0.631092433 C5.44506777,0.524876264 7.12620899,1.86786759 7.44354179,3.75 L12.6072293,3.75 L9.74097929,0.8838125 L10.6247918,0 Z M3.74979179,1.875 C2.36907992,1.875 1.24979179,2.99428813 1.24979179,4.375 C1.24979179,5.75571187 2.36907992,6.875 3.74979179,6.875 C5.12986114,6.87345004 6.24824183,5.75506935 6.24979179,4.375 C6.24979179,2.99428813 5.13050366,1.875 3.74979179,1.875 Z"></path></clipPath></defs><g transform="translate(-3.0 -388.0)"><g transform="translate(0.0 246.0)"><g transform="translate(0.0 140.0)"><g transform="translate(3.125208209682948 2.5)"><g clip-path="url(#i0)"><polygon points="8.67361738e-19,0 14.9997918,0 14.9997918,15 8.67361738e-19,15 8.67361738e-19,0" stroke="none" fill="#31CDC9"></polygon></g></g></g></g></g></svg>