<?xml version="1.0" encoding="UTF-8"?>
<svg width="18px" height="16px" viewBox="0 0 18 16" version="1.1" xmlns="http://www.w3.org/2000/svg" xmlns:xlink="http://www.w3.org/1999/xlink">
    <title>Enterprise / Commerce / wallet / 24 Copy</title>
    <g id="Symbols" stroke="none" stroke-width="1" fill="none" fill-rule="evenodd">
        <g id="Sidebar-/-02" transform="translate(-2.000000, -266.000000)" fill="#8698A2">
            <g id="Play-Metaverse" transform="translate(1.000000, 0.000000)">
                <g id="Group-6-Copy-10" transform="translate(0.000000, 264.000000)">
                    <g id="Enterprise-/-Commerce-/-wallet-/-24-Copy" transform="translate(1.250000, 2.500000)">
                        <path d="M17.5,2.5 L14.9375,2.5 C14.625,1.0625 13.375,0 11.875,0 C10.375,0 9.125,1.0625 8.8125,2.5 L0,2.5 L0,3.75 L8.8125,3.75 C9.125,5.1875 10.375,6.25 11.875,6.25 C13.375,6.25 14.625,5.1875 14.9375,3.75 L17.5,3.75 L17.5,2.5 Z M11.875,5 C10.8125,5 10,4.1875 10,3.125 C10,2.0625 10.8125,1.25 11.875,1.25 C12.9375,1.25 13.75,2.0625 13.75,3.125 C13.75,4.1875 12.9375,5 11.875,5 Z M0,12.5 L2.5625,12.5 C2.875,13.9375 4.125,15 5.625,15 C7.125,15 8.375,13.9375 8.6875,12.5 L17.5,12.5 L17.5,11.25 L8.6875,11.25 C8.375,9.8125 7.125,8.75 5.625,8.75 C4.125,8.75 2.875,9.8125 2.5625,11.25 L0,11.25 L0,12.5 Z M5.625,10 C6.6875,10 7.5,10.8125 7.5,11.875 C7.5,12.9375 6.6875,13.75 5.625,13.75 C4.5625,13.75 3.75,12.9375 3.75,11.875 C3.75,10.8125 4.5625,10 5.625,10 Z" id="Fill"></path>
                    </g>
                </g>
            </g>
        </g>
    </g>
</svg>