<?xml version="1.0" encoding="UTF-8"?><svg version="1.1" width="15px" height="17px" viewBox="0 0 15.0 17.0" xmlns="http://www.w3.org/2000/svg" xmlns:xlink="http://www.w3.org/1999/xlink"><defs><clipPath id="i0"><path d="M6.73412497,1.939875 L11.714625,5.0528125 C13.0559563,5.89863537 13.8326838,7.40569725 13.7432623,8.98891858 C13.6538409,10.5721399 12.7123546,11.9821558 11.2843125,12.6715625 L4.48431247,15.939375 C4.06061217,16.1444267 3.59589731,16.2506363 3.12518747,16.2500028 C2.96955607,16.2500028 2.8141305,16.2386872 2.66012497,16.21625 C1.11228235,15.9582959 -0.0167235566,14.6109113 0.000187468196,13.0418125 L0.000187468196,5.7490625 C-0.0171821266,3.46991291 1.6808819,1.54168182 3.94393747,1.27075 C4.92290717,1.17184056 5.90649361,1.407718 6.73412497,1.939875 Z M4.37643747,2.49999496 C4.27293747,2.49999496 4.16866663,2.50502083 4.06362497,2.5150625 C2.43947499,2.72002719 1.2283669,4.11217596 1.25018747,5.7490625 L1.25018747,13.0418125 C1.23057668,13.9910246 1.90511448,14.8131466 2.83987497,14.9793125 C3.21529593,15.0359023 3.59905853,14.9782137 3.94124997,14.81375 L10.743,11.545 C11.7610219,11.0524753 12.4318515,10.0465833 12.4953078,8.91745868 C12.5587641,7.78833401 12.004864,6.71361276 11.0484375,6.110125 L6.06556247,2.9959375 C5.56214537,2.67115492 4.97552956,2.4989209 4.37643747,2.49999496 Z M4.37518747,7.5 L4.37518747,8.75 L3.12518747,8.75 L3.12518747,7.5 L4.37518747,7.5 Z M6.87518747,6.25 L6.87518747,7.5 L5.62518747,7.5 L5.62518747,6.25 L6.87518747,6.25 Z M4.37518747,5 L4.37518747,6.25 L3.12518747,6.25 L3.12518747,5 L4.37518747,5 Z M10.0001875,0 L10.0001875,0.625 C10.0009109,1.31505606 10.5601314,1.87427658 11.2501875,1.875 L13.7501875,1.875 L13.7501875,3.125 L11.2501875,3.125 C9.87011812,3.12345004 8.75173743,2.00506935 8.75018747,0.625 L8.75018747,0 L10.0001875,0 Z"></path></clipPath></defs><g transform="translate(-2.0 -227.0)"><g transform="translate(0.0 150.0)"><g transform="translate(0.0 76.0)"><g transform="translate(2.4998125318040056 1.25)"><g clip-path="url(#i0)"><polygon points="1.33226763e-15,0 13.7502283,0 13.7502283,16.2500057 1.33226763e-15,16.2500057 1.33226763e-15,0" stroke="none" fill="#8698A2"></polygon></g></g></g></g></g></svg>