<?xml version="1.0" encoding="UTF-8"?><svg version="1.1" width="20px" height="20px" viewBox="0 0 20.0 20.0" xmlns="http://www.w3.org/2000/svg" xmlns:xlink="http://www.w3.org/1999/xlink"><defs><clipPath id="i0"><path d="M11.875,0 C12.5653559,0 13.125,0.559644063 13.125,1.25 L13.125,3.7875 L16.5125,1.36875 C16.7026541,1.23335819 16.9524094,1.21521676 17.1601331,1.32170801 C17.3678568,1.42819926 17.4989241,1.64157259 17.5,1.875 L17.5,10.625 C17.4989241,10.8584274 17.3678568,11.0718007 17.1601331,11.178292 C16.9524094,11.2847832 16.7026541,11.2666418 16.5125,11.13125 L13.125,8.7125 L13.125,11.25 C13.125,11.9403559 12.5653559,12.5 11.875,12.5 L1.25,12.5 C0.559644063,12.5 0,11.9403559 0,11.25 L0,1.25 C0,0.559644063 0.559644063,0 1.25,0 L11.875,0 Z M11.875,1.25 L1.25,1.25 L1.25,11.25 L11.875,11.25 L11.875,7.5 C11.8760759,7.26657259 12.0071432,7.05319926 12.2148669,6.94670801 C12.4225906,6.84021676 12.6723459,6.85835819 12.8625,6.99375 L16.25,9.4125 L16.25,3.0875 L12.8625,5.50625 C12.6723459,5.64164181 12.4225906,5.65978324 12.2148669,5.55329199 C12.0071432,5.44680074 11.8760759,5.23342741 11.875,5 L11.875,1.25 Z"></path></clipPath></defs><g transform="translate(1.25 3.75)"><g clip-path="url(#i0)"><polygon points="0,0 17.5,0 17.5,12.5 0,12.5 0,0" stroke="none" fill="#31CDC9"></polygon></g></g></svg>