<?xml version="1.0" encoding="UTF-8"?>
<svg width="20px" height="20px" viewBox="0 0 20 20" version="1.1" xmlns="http://www.w3.org/2000/svg" xmlns:xlink="http://www.w3.org/1999/xlink">
    <title>Actions / Operations / recently-viewed / 20</title>
    <g id="Symbols" stroke="none" stroke-width="1" fill="none" fill-rule="evenodd">
        <g id="Actions-/-Operations-/-recently-viewed-/-20" fill="#31CDC9">
            <path d="M8.98421278,10.9361503 L8.98421278,5.05490027 L10.2342128,5.05490027 L10.2342128,10.4174003 L12.3592128,12.5486503 L11.4779628,13.4299003 L8.98421278,10.9361503 Z M10,1.25 C7.64498111,1.25033365 5.39040411,2.20401971 3.75,3.89375 L3.75,2.875 C3.75,2.52982203 3.47017797,2.25 3.125,2.25 C2.77982203,2.25 2.5,2.52982203 2.5,2.875 L2.5,6.25 L2.5,6.25 L5.875,6.25 C6.22017797,6.25 6.5,5.97017797 6.5,5.625 C6.5,5.27982203 6.22017797,5 5.875,5 L4.425,5 L4.425,5 C6.84436901,2.31151609 10.8378335,1.73265014 13.9209956,3.62352388 C17.0041577,5.51439763 18.2986594,9.3363225 16.9991706,12.7116182 C15.6996818,16.0869139 12.1764121,18.0539967 8.6212437,17.3891133 C5.06607534,16.7242298 2.49183559,13.6167977 2.5,10 L1.25,10 C1.25,14.8324916 5.16750844,18.75 10,18.75 C14.8324916,18.75 18.75,14.8324916 18.75,10 C18.75,5.16750844 14.8324916,1.25 10,1.25 Z" id="Fill"></path>
        </g>
    </g>
</svg>