<?xml version="1.0" encoding="UTF-8"?><svg version="1.1" width="18px" height="16px" viewBox="0 0 18.0 16.0" xmlns="http://www.w3.org/2000/svg" xmlns:xlink="http://www.w3.org/1999/xlink"><defs><clipPath id="i0"><path d="M15.6317533,0.000856644693 C15.9118486,-0.0137630225 16.1673821,0.159999808 16.2567533,0.425856645 L17.5067533,4.17585664 C17.5157578,4.24221926 17.5157578,4.30949403 17.5067533,4.37585664 L17.5067533,8.12585664 C17.5067533,8.47103461 17.2269313,8.75085664 16.8817533,8.75085664 L16.2567533,8.75085664 L16.2567533,15.0008566 L6.25675335,15.0008566 L6.25675335,8.75085664 L2.50675335,8.75085664 L2.50675335,15.0008566 L1.25675335,15.0008566 L1.25675335,8.75085664 L0.63175335,8.75085664 C0.286575381,8.75085664 0.00675334974,8.47103461 0.00675334974,8.12585664 L0.00675334974,4.37585664 C-0.00225111658,4.30949403 -0.00225111658,4.24221926 0.00675334974,4.17585664 L1.25675335,0.425856645 C1.34612455,0.159999808 1.60165813,-0.0137630225 1.88175335,0.000856644693 Z M15.0067533,8.75085664 L7.50675335,8.75085664 L7.50675335,13.7508566 L15.0067533,13.7508566 L15.0067533,8.75085664 Z M15.1817533,1.25085664 L2.33175335,1.25085664 L1.25675335,4.47585664 L1.25675335,7.50085664 L3.75675335,7.50085664 L3.75675335,5.00085664 L5.00675335,5.00085664 L5.00675335,7.50085664 L8.13175335,7.50085664 L8.13175335,5.00085664 L9.38175335,5.00085664 L9.38175335,7.50085664 L12.5067533,7.50085664 L12.5067533,5.00085664 L13.7567533,5.00085664 L13.7567533,7.50085664 L16.2567533,7.50085664 L16.2567533,4.47585664 L15.1817533,1.25085664 Z"></path></clipPath></defs><g transform="translate(-1.0 -116.0)"><g transform="translate(0.0 6.0)"><g transform="translate(0.0 108.0)"><g transform="translate(1.2432466502637567 2.4991433553066225)"><g clip-path="url(#i0)"><polygon points="0,0 17.5135067,0 17.5135067,15.0008566 0,15.0008566 0,0" stroke="none" fill="#8698A2"></polygon></g></g></g></g></g></svg>