<?xml version="1.0" encoding="UTF-8"?>
<svg width="16px" height="18px" viewBox="0 0 16 18" version="1.1" xmlns="http://www.w3.org/2000/svg" xmlns:xlink="http://www.w3.org/1999/xlink">
    <title>Enterprise / Commerce / wallet / 24</title>
    <g id="Symbols" stroke="none" stroke-width="1" fill="none" fill-rule="evenodd">
        <g id="Sidebar-/-02" transform="translate(-3.000000, -45.000000)" fill="#31cdc9">
            <g id="Play-Metaverse" transform="translate(1.000000, 0.000000)">
                <g id="Group-6-Copy-6" transform="translate(0.000000, 44.000000)">
                    <g id="Enterprise-/-Commerce-/-wallet-/-24" transform="translate(2.500000, 1.874267)">
                        <path d="M13.75,4.37573294 L12.0239375,4.37573294 C12.8694298,3.12610143 12.5745969,1.43148545 11.3567347,0.540840771 C10.1388726,-0.349803905 8.4346045,-0.117166727 7.5,1.06729544 C6.56350342,-0.111093169 4.86378645,-0.340091745 3.64881949,0.548435611 C2.43385254,1.43696297 2.13693151,3.12613911 2.9760625,4.37573294 L1.25,4.37573294 C0.560000968,4.37659382 0.000860885636,4.93573391 0,5.62573294 L0,8.12573294 C0.000860885636,8.81573197 0.560000968,9.37487205 1.25,9.37573294 L1.25,15.6257329 C1.25086089,16.315732 1.81000097,16.8748721 2.5,16.8757329 L12.5,16.8757329 C13.189999,16.8748721 13.7491391,16.315732 13.75,15.6257329 L13.75,9.37573294 C14.439999,9.37487205 14.9991391,8.81573197 15,8.12573294 L15,5.62573294 C14.9991391,4.93573391 14.439999,4.37659382 13.75,4.37573294 Z M8.125,2.81323294 C8.125,1.95028802 8.82455508,1.25073294 9.6875,1.25073294 C10.5504449,1.25073294 11.25,1.95028802 11.25,2.81323294 C11.25,3.67617786 10.5504449,4.37573294 9.6875,4.37573294 L8.125,4.37573294 L8.125,2.81323294 Z M5.3125,1.25073294 C6.17501661,1.2517661 6.87396684,1.95071633 6.875,2.81323294 L6.875,4.37573294 L5.3125,4.37573294 C4.44955508,4.37573294 3.75,3.67617786 3.75,2.81323294 C3.75,1.95028802 4.44955508,1.25073294 5.3125,1.25073294 Z M1.25,5.62573294 L6.875,5.62573294 L6.875,8.12573294 L1.25,8.12573294 L1.25,5.62573294 Z M2.5,9.37573294 L6.875,9.37573294 L6.875,15.6257329 L2.5,15.6257329 L2.5,9.37573294 Z M12.50075,15.6257329 L8.125,15.6257329 L8.125,9.37573294 L12.5,9.37573294 L12.50075,15.6257329 Z M8.125,8.12573294 L8.125,5.62573294 L13.75,5.62573294 L13.75075,8.12573294 L8.125,8.12573294 Z" id="Fill"></path>
                    </g>
                </g>
            </g>
        </g>
    </g>
</svg>