<?xml version="1.0" encoding="UTF-8"?><svg version="1.1" width="18px" height="18px" viewBox="0 0 18.0 18.0" xmlns="http://www.w3.org/2000/svg" xmlns:xlink="http://www.w3.org/1999/xlink"><defs><clipPath id="i0"><path d="M8.75,0 C11.0706443,0 13.296241,0.921872353 14.9371843,2.56281566 C16.5781276,4.20375898 17.5,6.42935571 17.5,8.75 C17.5,13.5824916 13.5824916,17.5 8.75,17.5 C3.91750844,17.5 0,13.5824916 0,8.75 C0,3.91750844 3.91750844,0 8.75,0 Z M8.75,1.25 C4.60786438,1.25 1.25,4.60786438 1.25,8.75 C1.25,12.8921356 4.60786438,16.25 8.75,16.25 C10.7391237,16.25 12.646778,15.4598237 14.0533009,14.0533009 C15.4598237,12.646778 16.25,10.7391237 16.25,8.75 C16.25,4.60786438 12.8921356,1.25 8.75,1.25 Z M8.75,12.5 C9.26776695,12.5 9.6875,12.919733 9.6875,13.4375 C9.6875,13.955267 9.26776695,14.375 8.75,14.375 C8.23223305,14.375 7.8125,13.955267 7.8125,13.4375 C7.8125,12.919733 8.23223305,12.5 8.75,12.5 Z M9.375,3.74999301 C10.9283009,3.74999301 12.1875,5.00919914 12.1875,6.5625 C12.1875,8.11580086 10.9283009,9.375 9.375,9.375 L9.375,10.9375 L8.12499301,10.9375 L8.12499301,8.125 L9.375,8.125 C10.2379449,8.125 10.9375,7.42544492 10.9375,6.5625 C10.9375,5.69955508 10.2379449,5 9.375,5 L8.4375,5 C7.57455508,5 6.875,5.69955508 6.875,6.5625 L6.875,6.875 L5.62499301,6.875 L5.62499301,6.5625 C5.62333571,5.81606966 5.91911735,5.09973189 6.44692462,4.57192462 C6.97473189,4.04411735 7.69106966,3.74833571 8.4375,3.74999301 Z"></path></clipPath></defs><g transform="translate(-1.0 -419.0)"><g transform="translate(0.0 246.0)"><g transform="translate(0.0 172.0)"><g transform="translate(1.25 1.25)"><g clip-path="url(#i0)"><polygon points="0,0 17.5,0 17.5,17.5 0,17.5 0,0" stroke="none" fill="#31CDC9"></polygon></g></g></g></g></g></svg>