<?xml version="1.0" encoding="UTF-8"?><svg version="1.1" width="20px" height="20px" viewBox="0 0 20.0 20.0" xmlns="http://www.w3.org/2000/svg" xmlns:xlink="http://www.w3.org/1999/xlink"><defs><clipPath id="i0"><path d="M10,1.25 C12.3206443,1.25 14.546241,2.17187235 16.1871843,3.81281566 C17.8281276,5.45375898 18.75,7.67935571 18.75,10 C18.75,14.8324916 14.8324916,18.75 10,18.75 C5.16750844,18.75 1.25,14.8324916 1.25,10 C1.25,5.16750844 5.16750844,1.25 10,1.25 Z M10.73125,7.5 L9.26875,7.5 L8.94375,9.58125 C8.84195585,10.1900838 8.31097701,10.6334511 7.69375,10.625 L5.625,10.625 C4.93464406,10.625 4.375,10.0653559 4.375,9.375 L4.375,8.125 L2.75,8.125 C2.58693462,8.73675873 2.50291736,9.3668882 2.5,10 C2.5,14.1421356 5.85786438,17.5 10,17.5 C14.1421356,17.5 17.5,14.1421356 17.5,10 C17.4970826,9.3668882 17.4130654,8.73675873 17.25,8.125 L15.625,8.125 L15.625,9.375 C15.625,10.0653559 15.0653559,10.625 14.375,10.625 L12.325,10.625 C11.707773,10.6334511 11.1767941,10.1900838 11.075,9.58125 L10.73125,7.5 Z M13.2125,11.94375 L14.28125,12.56875 C13.3796966,14.0743103 11.7548509,14.9970329 10,15 C8.24514909,14.9970329 6.62030344,14.0743103 5.71875,12.56875 L6.7875,11.94375 C7.46591698,13.0703455 8.68490799,13.7592362 10,13.7592362 C11.315092,13.7592362 12.534083,13.0703455 13.2125,11.94375 Z M10,2.5 C7.07170702,2.50456785 4.41387,4.21300304 3.19375,6.875 L4.375,6.875 C4.375,6.52982203 4.65482203,6.25 5,6.25 L15,6.25 C15.345178,6.25 15.625,6.52982203 15.625,6.875 L16.80625,6.875 C15.58613,4.21300304 12.928293,2.50456785 10,2.5 Z"></path></clipPath></defs><g clip-path="url(#i0)"><polygon points="1.25,1.25 18.75,1.25 18.75,18.75 1.25,18.75 1.25,1.25" stroke="none" fill="#8698A2"></polygon></g></svg>