<?xml version="1.0" encoding="UTF-8"?><svg version="1.1" width="18px" height="16px" viewBox="0 0 18.0 16.0" xmlns="http://www.w3.org/2000/svg" xmlns:xlink="http://www.w3.org/1999/xlink"><defs><clipPath id="i0"><path d="M1600,0 L1600,1080 L0,1080 L0,0 L1600,0 Z"></path></clipPath><clipPath id="i1"><path d="M13.375,0.125003601 C13.564386,-0.0170359205 13.8177685,-0.0398834018 14.0295085,0.065986607 C14.2412485,0.171856616 14.375,0.388271065 14.375,0.625003601 L14.375,3.0328161 C15.1281133,3.68864889 15.5760881,4.62702039 15.6125,5.6250036 L16.875,5.6250036 C17.220178,5.6250036 17.5,5.90482563 17.5,6.2500036 L17.5,9.3750036 C17.5,9.72018157 17.220178,10 16.875,10 L15.51175,10 C15.3198284,10.9949855 14.6656212,11.8391329 13.75,12.2732536 L13.75,14.3750036 C13.75,14.7201816 13.470178,15 13.125,15 L10.625,15 C10.279822,15 10,14.7201816 10,14.3750036 L10,13.1250036 L8.125,13.1250036 L8.125,14.3750036 C8.125,14.7201816 7.84517797,15 7.5,15 L5,15 C4.65482203,15 4.375,14.7201816 4.375,14.3750036 L4.375,12.2228786 C2.99900639,11.2793717 2.10225653,9.78328257 1.91875,8.1250036 L1.875,8.1250036 C0.839937294,8.12386691 0.00113669446,7.28506631 0,6.2500036 L0,5 L1.25,5 L1.25,6.2500036 C1.25031013,6.59505303 1.52995057,6.87469348 1.875,6.8750036 L1.9071875,6.8750036 C2.210375,3.9007536 4.6815625,1.8750036 8.125,1.8750036 L11.0415625,1.8750036 Z M13.125,1.8750036 L11.4584375,3.1250036 L8.125,3.1250036 C5.6363125,3.1250036 3.12490873,4.4778786 3.12490873,7.5000036 C3.11405317,9.20132615 4.08864262,10.7552847 5.625,11.4861911 L5.625,13.7500036 L6.875,13.7500036 L6.875,11.8750036 L11.25,11.8750036 L11.25,13.7500036 L12.5,13.7500036 L12.5,11.4471286 C13.9378125,10.9283786 14.26175,10.4705661 14.4525,8.7500036 L16.25,8.7500036 L16.25,6.8750036 L14.3864375,6.8750036 C14.320375,5.6015036 14.636375,4.7723161 13.125,3.6102536 L13.125,1.8750036 Z M11.25,4.3750036 L11.25,5.6250036 L6.875,5.6250036 L6.875,4.3750036 L11.25,4.3750036 Z"></path></clipPath></defs><g transform="translate(-1279.0 -266.0)"><g clip-path="url(#i0)"><g transform="translate(1254.0 88.0)"><g transform="translate(0.0 32.0)"><g transform="translate(24.0 144.0)"><g transform="translate(1.25 2.4999963986096247)"><g clip-path="url(#i1)"><polygon points="0,1.38777878e-17 17.5,1.38777878e-17 17.5,15 0,15 0,1.38777878e-17" stroke="none" fill="#30CDC9"></polygon></g></g></g></g></g></g></g></svg>