<?xml version="1.0" encoding="UTF-8"?><svg version="1.1" width="17px" height="18px" viewBox="0 0 17.0 18.0" xmlns="http://www.w3.org/2000/svg" xmlns:xlink="http://www.w3.org/1999/xlink"><defs><clipPath id="i0"><path d="M1600,0 L1600,2259 L0,2259 L0,0 L1600,0 Z"></path></clipPath><clipPath id="i1"><path d="M1.111425,0.0928304408 L16.111425,8.34283044 C16.3511122,8.4746363 16.5000324,8.72648051 16.5000324,9.00001794 C16.5000324,9.27355537 16.3511122,9.52539958 16.111425,9.65720544 L1.111425,17.9072054 C1.00069052,17.9680957 0.876371451,18.0000554 0.75,18.0000554 C0.335786438,18.0000554 0,17.664269 0,17.2500554 L0,0.750055441 C0,0.484878033 0.139993392,0.239401438 0.368249023,0.104425793 C0.596504653,-0.0305498528 0.879069602,-0.034958553 1.111425,0.0928304408 Z M1.5,2.01823044 L1.5,15.9816554 L14.1936,9.00005544 L1.5,2.01823044 Z"></path></clipPath></defs><g transform="translate(-543.0 -1023.0)"><g clip-path="url(#i0)"><g transform="translate(376.0 774.0)"><g transform="translate(55.0 244.0)"><g transform="translate(108.0 0.0)"><g transform="translate(0.0 2.0)"><g transform="translate(4.5 2.9999445592485596)"><g clip-path="url(#i1)"><polygon points="0,2.77555756e-17 16.5000324,2.77555756e-17 16.5000324,18.0000554 0,18.0000554 0,2.77555756e-17" stroke="none" fill="#FFDA00"></polygon></g></g></g></g></g></g></g></g></svg>