<?xml version="1.0" encoding="UTF-8"?><svg version="1.1" width="15px" height="16px" viewBox="0 0 15.0 16.0" xmlns="http://www.w3.org/2000/svg" xmlns:xlink="http://www.w3.org/1999/xlink"><defs><clipPath id="i0"><path d="M0.9261875,0.0773587006 L13.4261875,6.9523587 C13.6259268,7.06219692 13.750027,7.27206709 13.750027,7.50001495 C13.750027,7.72796281 13.6259268,7.93783298 13.4261875,8.0476712 L0.9261875,14.9226712 C0.833908763,14.973413 0.730309543,15.0000462 0.625,15.0000462 C0.279822031,15.0000462 0,14.7202242 0,14.3750462 L0,0.625046201 C0,0.404065028 0.11666116,0.199501199 0.306874186,0.0870214939 C0.497087211,-0.0254582107 0.732558002,-0.0291321275 0.9261875,0.0773587006 Z M1.25,1.6818587 L1.25,13.3180462 L11.828,7.5000462 L1.25,1.6818587 Z"></path></clipPath></defs><g transform="translate(-3.0 -52.0)"><g transform="translate(0.0 6.0)"><g transform="translate(0.0 44.0)"><g transform="translate(3.75 2.4999537993737997)"><g clip-path="url(#i0)"><polygon points="0,1.38777878e-17 13.750027,1.38777878e-17 13.750027,15.0000462 0,15.0000462 0,1.38777878e-17" stroke="none" fill="#31CDC9"></polygon></g></g></g></g></g></svg>