<?xml version="1.0" encoding="UTF-8"?><svg version="1.1" width="14px" height="18px" viewBox="0 0 14.0 18.0" xmlns="http://www.w3.org/2000/svg" xmlns:xlink="http://www.w3.org/1999/xlink"><defs><clipPath id="i0"><path d="M1600,0 L1600,1080 L0,1080 L0,0 L1600,0 Z"></path></clipPath><clipPath id="i1"><path d="M8.125,10 C10.5412458,10 12.5,11.9587542 12.5,14.375 L12.5,17.5 L11.25,17.5 L11.25,14.375 C11.25,13.5461985 10.9207599,12.7513425 10.3347087,12.1652913 C9.74865751,11.5792401 8.95380153,11.25 8.125,11.25 L4.375,11.25 C2.64911016,11.25 1.25,12.6491102 1.25,14.375 L1.25,17.5 L0,17.5 L0,14.375 C0,11.9587542 1.95875422,10 4.375,10 L8.125,10 Z M6.25,0 C7.41032214,0 8.52312051,0.460936177 9.34359217,1.28140783 C10.1640638,2.10187949 10.625,3.21467786 10.625,4.375 C10.625,6.79124578 8.66624578,8.75 6.25,8.75 C3.83375422,8.75 1.875,6.79124578 1.875,4.375 C1.875,1.95875422 3.83375422,0 6.25,0 Z M6.25,1.25 C4.52411016,1.25 3.125,2.64911016 3.125,4.375 C3.125,6.10088984 4.52411016,7.5 6.25,7.5 C7.97588984,7.5 9.375,6.10088984 9.375,4.375 C9.375,2.64911016 7.97588984,1.25 6.25,1.25 Z"></path></clipPath></defs><g transform="translate(-1281.0 -121.0)"><g clip-path="url(#i0)"><g transform="translate(1246.0 88.0)"><g transform="translate(32.0 32.0)"><g transform="translate(3.75 1.25)"><g clip-path="url(#i1)"><polygon points="0,0 12.5,0 12.5,17.5 0,17.5 0,0" stroke="none" fill="#30CDC9"></polygon></g></g></g></g></g></g></svg>