<?xml version="1.0" encoding="UTF-8"?><svg version="1.1" width="20px" height="18px" viewBox="0 0 20.0 18.0" xmlns="http://www.w3.org/2000/svg" xmlns:xlink="http://www.w3.org/1999/xlink"><defs><clipPath id="i0"><path d="M10.625,13.125 C12.3500475,13.127032 13.747968,14.5249525 13.75,16.25 L13.75,17.5 L12.5,17.5 L12.5,16.25 C12.4988633,15.2149373 11.6600627,14.3761367 10.625,14.375 L8.125,14.375 C7.08993729,14.3761367 6.25113669,15.2149373 6.25,16.25 L6.25,17.5 L5,17.5 L5,16.25 C5.00203196,14.5249525 6.39995252,13.127032 8.125,13.125 L10.625,13.125 Z M15.625,7.5 C17.3500617,7.5019976 18.7480024,8.89993827 18.75,10.625 L18.75,13.125 L17.5,13.125 L17.5,10.625 C17.4988633,9.58993729 16.6600627,8.75113669 15.625,8.75 L14.375,8.75 L14.375,7.5 Z M4.375,7.5 L4.375,8.75 L3.125,8.75 C2.08993729,8.75113669 1.25113669,9.58993729 1.25,10.625 L1.25,13.125 L0,13.125 L0,10.625 C0.00203196157,8.89995252 1.39995252,7.50203196 3.125,7.5 L4.375,7.5 Z M9.375,5.625 C10.2038015,5.625 10.9986575,5.95424013 11.5847087,6.54029131 C12.1707599,7.12634249 12.5,7.92119847 12.5,8.75 C12.5,10.4758898 11.1008898,11.875 9.375,11.875 C7.64911016,11.875 6.25,10.4758898 6.25,8.75 C6.25,7.02411016 7.64911016,5.625 9.375,5.625 Z M9.375,6.875 C8.33946609,6.875 7.5,7.71446609 7.5,8.75 C7.5,9.78553391 8.33946609,10.625 9.375,10.625 C10.4105339,10.625 11.25,9.78553391 11.25,8.75 C11.25,7.71446609 10.4105339,6.875 9.375,6.875 Z M14.375,0 C15.2038015,0 15.9986575,0.329240126 16.5847087,0.915291309 C17.1707599,1.50134249 17.5,2.29619847 17.5,3.125 C17.5,4.85088984 16.1008898,6.25 14.375,6.25 C12.6491102,6.25 11.25,4.85088984 11.25,3.125 C11.25,1.39911016 12.6491102,0 14.375,0 Z M4.375,0 C5.20380153,0 5.99865751,0.329240126 6.58470869,0.915291309 C7.17075987,1.50134249 7.5,2.29619847 7.5,3.125 C7.5,4.85088984 6.10088984,6.25 4.375,6.25 C2.64911016,6.25 1.25,4.85088984 1.25,3.125 C1.25,1.39911016 2.64911016,0 4.375,0 Z M14.375,1.25 C13.3394661,1.25 12.5,2.08946609 12.5,3.125 C12.5,4.16053391 13.3394661,5 14.375,5 C15.4105339,5 16.25,4.16053391 16.25,3.125 C16.25,2.08946609 15.4105339,1.25 14.375,1.25 Z M4.375,1.25 C3.33946609,1.25 2.5,2.08946609 2.5,3.125 C2.5,4.16053391 3.33946609,5 4.375,5 C5.41053391,5 6.25,4.16053391 6.25,3.125 C6.25,2.08946609 5.41053391,1.25 4.375,1.25 Z"></path></clipPath></defs><g transform="translate(0.0 -355.0)"><g transform="translate(0.0 246.0)"><g transform="translate(0.0 108.0)"><g transform="translate(0.625 1.25)"><g clip-path="url(#i0)"><polygon points="0,0 18.75,0 18.75,17.5 0,17.5 0,0" stroke="none" fill="#8698A2"></polygon></g></g></g></g></g></svg>