<?xml version="1.0" encoding="UTF-8"?><svg version="1.1" width="17px" height="18px" viewBox="0 0 17.0 18.0" xmlns="http://www.w3.org/2000/svg" xmlns:xlink="http://www.w3.org/1999/xlink"><defs><clipPath id="i0"><path d="M10.625,8.125 L12.218125,11.21125 L15.625,11.705625 L13.125,14.108125 L13.75,17.5 L10.625,15.89875 L7.5,17.5 L8.125,14.108125 L5.625,11.705625 L9.125,11.21125 L10.625,8.125 Z M5,0 L5,1.25 L10,1.25 L10,0 L11.25,0 L11.25,1.25 L13.75,1.25 C14.4403559,1.25 15,1.80964406 15,2.5 L15,6.25 L13.75,6.25 L13.75,2.5 L11.25,2.5 L11.25,3.75 L10,3.75 L10,2.5 L5,2.5 L5,3.75 L3.75,3.75 L3.75,2.5 L1.25,2.5 L1.25,15 L3.75,15 L3.75,16.25 L1.25,16.25 C0.559644063,16.25 0,15.6903559 0,15 L0,2.5 C0,1.80964406 0.559644063,1.25 1.25,1.25 L3.75,1.25 L3.75,0 L5,0 Z"></path></clipPath></defs><g transform="translate(-2.0 -83.0)"><g transform="translate(0.0 6.0)"><g transform="translate(0.0 76.0)"><g transform="translate(2.5 1.25)"><g clip-path="url(#i0)"><polygon points="0,0 15.625,0 15.625,17.5 0,17.5 0,0" stroke="none" fill="#8698A2"></polygon></g></g></g></g></g></svg>