<?xml version="1.0" encoding="UTF-8"?><svg version="1.1" width="24px" height="18px" viewBox="0 0 24.0 18.0" xmlns="http://www.w3.org/2000/svg" xmlns:xlink="http://www.w3.org/1999/xlink"><defs><clipPath id="i0"><path d="M1600,0 L1600,1080 L0,1080 L0,0 L1600,0 Z"></path></clipPath><clipPath id="i1"><path d="M11.2496809,0 C16.2462541,0.187896211 20.6517038,3.33127593 22.4546809,7.995 C22.5142555,8.15978069 22.5142555,8.34021931 22.4546809,8.505 C20.6517038,13.1687241 16.2462541,16.3121038 11.2496809,16.5 C6.25310772,16.3121038 1.84765808,13.1687241 0.0446809233,8.505 C-0.0148936411,8.34021931 -0.0148936411,8.15978069 0.0446809233,7.995 C1.84765808,3.33127593 6.25310772,0.187896211 11.2496809,0 Z M11.2496809,1.5 C7.27468092,1.5 3.07468092,4.4475 1.55218092,8.25 C3.07468092,12.0525 7.27468092,15 11.2496809,15 C15.2246809,15 19.4246809,12.0525 20.9471809,8.25 C19.4246809,4.4475 15.2246809,1.5 11.2496809,1.5 Z M11.2496809,3.75 C13.7349623,3.75 15.7496809,5.76471863 15.7496809,8.25 C15.7496809,10.7352814 13.7349623,12.75 11.2496809,12.75 C8.76439955,12.75 6.74968092,10.7352814 6.74968092,8.25 C6.74968092,5.76471863 8.76439955,3.75 11.2496809,3.75 Z M11.2496809,5.25 C9.59282667,5.25 8.24968092,6.59314575 8.24968092,8.25 C8.24968092,9.90685425 9.59282667,11.25 11.2496809,11.25 C12.0453304,11.25 12.8083921,10.9339295 13.3710013,10.3713203 C13.9336104,9.80871121 14.2496809,9.04564947 14.2496809,8.25 C14.2496809,6.59314575 12.9065352,5.25 11.2496809,5.25 Z"></path></clipPath></defs><g transform="translate(-302.0 -508.0)"><g clip-path="url(#i0)"><g transform="translate(302.0 505.0)"><g transform="translate(0.7503190767305252 3.75)"><g clip-path="url(#i1)"><polygon points="0,0 22.4993618,0 22.4993618,16.5 0,16.5 0,0" stroke="none" fill="#8698A2"></polygon></g></g></g></g></g></svg>