<?xml version="1.0" encoding="UTF-8"?><svg version="1.1" width="18px" height="16px" viewBox="0 0 18.0 16.0" xmlns="http://www.w3.org/2000/svg" xmlns:xlink="http://www.w3.org/1999/xlink"><defs><clipPath id="i0"><path d="M1600,0 L1600,1080 L0,1080 L0,0 L1600,0 Z"></path></clipPath><clipPath id="i1"><path d="M17.5,13.75 L17.5,15 L0,15 L0,13.75 L17.5,13.75 Z M17.5,11.25 L17.5,12.5 L0,12.5 L0,11.25 L17.5,11.25 Z M16.25,0 C16.939629,0.00175186156 17.4982481,0.560371011 17.5,1.25 L17.5,8.75 C17.4990704,9.43997053 16.9399705,9.99907042 16.25,10 L1.25,10 C0.560371011,9.99824814 0.00175186156,9.43962899 0,8.75 L0,1.25 C0.00175186156,0.560371011 0.560371011,0.00175186156 1.25,0 L16.25,0 Z M16.25,1.25 L1.25,1.25 L1.25,8.75 L16.25,8.75 L16.25,1.25 Z M8.75,2.5 C10.1307119,2.5 11.25,3.61928813 11.25,5 C11.24845,6.38006935 10.1300693,7.49845004 8.75,7.5 C7.36928813,7.5 6.25,6.38071187 6.25,5 C6.25,3.61928813 7.36928813,2.5 8.75,2.5 Z M13.75,3.75 C14.4403559,3.75 15,4.30964406 15,5 C15,5.69035594 14.4403559,6.25 13.75,6.25 C13.0596441,6.25 12.5,5.69035594 12.5,5 C12.5,4.30964406 13.0596441,3.75 13.75,3.75 Z M8.75,3.75 C8.05964406,3.75 7.5,4.30964406 7.5,5 C7.5,5.69035594 8.05964406,6.25 8.75,6.25 C9.44035594,6.25 10,5.69035594 10,5 C9.99931096,4.30992967 9.44007033,3.75068904 8.75,3.75 Z M3.75,3.75 C4.44035594,3.75 5,4.30964406 5,5 C5,5.69035594 4.44035594,6.25 3.75,6.25 C3.05964406,6.25 2.5,5.69035594 2.5,5 C2.5,4.30964406 3.05964406,3.75 3.75,3.75 Z"></path></clipPath></defs><g transform="translate(-1279.0 -302.0)"><g clip-path="url(#i0)"><g transform="translate(1254.0 88.0)"><g transform="translate(0.0 32.0)"><g transform="translate(24.0 180.0)"><g transform="translate(1.25 2.5)"><g clip-path="url(#i1)"><polygon points="0,0 17.5,0 17.5,15 0,15 0,0" stroke="none" fill="#8698A2"></polygon></g></g></g></g></g></g></g></svg>